<svg xmlns="http://www.w3.org/2000/svg" viewBox="0 0 793.2 441.96"><defs><style>.cls-1{fill:#e9e8ea;}.cls-2{fill:#f0861b;}</style></defs><title>Fichier 1</title><g id="Calque_2" data-name="Calque 2"><g id="Calque_1-2" data-name="Calque 1"><path class="cls-1" d="M260.8,354.86c-10.3-10.6-13.6-20.9-13.6-34.2,0-28,23.1-53.5,62.1-53.5,15,0,26.9,2.4,39.2,11.5,11.2,8.2,17.1,21.9,17.1,35.1,0,34.7-26.3,57-61.1,57C290.3,370.76,274,368.26,260.8,354.86Zm87.6-30.8c0-30-20.8-51.5-44.3-51.5-19.4,0-40.6,13-40.6,42.2,0,25.3,20.4,50.2,48,50.2C331.7,365,348.4,346.66,348.4,324.06Z"/><path class="cls-1" d="M390.6,305.76c0-12.7-.3-28-.7-32-3-.7-7.4-1.4-11.2-2l-.4-3c4,.3,13,.6,23.9.6,6.5,0,17.4-.3,20.9-.6l-.7,3c-3.8.4-10.2,1.1-14.7,2-.4,2.4-.7,20.4-.7,32.5v18.8c0,30,12.7,40.2,28,40.2,9.3,0,15.6-2.3,20.4-6.8,7.6-7.2,9.5-19.7,9.5-36.7v-13c0-4.5-.1-30.4-.7-35.1-3.3-.6-11.7-1.7-15.4-2l-1-3c3.5.3,14.1.6,22.9.6,7.4,0,14.9-.3,17.3-.6l-.8,3c-2.4.6-6.2,1.1-9.9,2-.4,2.1-.7,19.8-.7,23.6v6.8c0,5.5.3,12.3.3,17.4,0,16-3,29.6-13.9,39.2-6.5,5.8-15.6,9.9-29.6,9.9-29.3,0-42.7-18.1-42.7-42.9v-21.9Z"/><path class="cls-1" d="M594.5,366.06c2-.1,12.7-1.4,15.6-1.7-.3-5.2-12.6-68.9-14.3-79.4h-.6c-3.8,8.6-31.7,76.6-35.9,84.6-4-8.8-30.6-79.4-32.3-84.8h-.5c-3.7,21.7-12,61-11.5,79.2,2.5.6,10.5,1.7,12.6,2l.6,3c-2-.3-18.4-.6-21.1-.6-3.8,0-11,.3-15.7.6l1-3c2.4-.4,6.9-1,10-1.8,3.1-8.9,18.5-78.8,20.7-90.4-3.8-.6-12.5-1.7-14-2l-.8-3c1.8.3,12.9.6,20.4.6,6.1,0,17.3-.3,21.2-.6l-.6,3a88.07,88.07,0,0,0-10.6,2c4.1,12.9,21.4,59.2,25.8,69.9,4.1-8.1,28.6-66.6,28.9-69.9a58.71,58.71,0,0,0-9.6-2l-.7-3c4.5.3,14.2.6,19.1.6,4.5,0,16.4-.3,19.7-.6l-.4,3c-2,.3-8.9,1.3-11.9,2,2.7,15.8,16.1,81.4,18.5,90.3,3.5.8,9.2,1.6,11.7,2l.7,3c-4.8-.3-13.3-.6-20-.6-6.5,0-22.1.3-26.2.6Z"/><path class="cls-1" d="M702.7,366.06a102.66,102.66,0,0,0,14.3-2c-2.5-7.4-12.6-37.4-14.9-41.5-5,0-27.5,1-32.7,1.8-.8,2-8.5,28.7-9.9,39.6a75.79,75.79,0,0,0,12.2,2l.6,3c-4.4-.3-17.3-.6-21.4-.6-3.7,0-13.2.3-16.4.6l.4-3a97,97,0,0,0,12.2-2c5.1-8.9,33.3-85,35.2-90.4a97,97,0,0,0-11.2-1.8l-.1-3c4.2.3,16,.6,18.4.6,5.9,0,20.1-.3,24.2-.6l-.4,3a86.85,86.85,0,0,0-10.8,1.8c1.7,6.2,9.5,28.4,14.9,43.3,4,10.9,12.7,34.7,19.2,47.1,4.1.8,8.2,1.4,12.5,2l.4,3c-1.7-.3-16-.6-23.5-.6-4.1,0-20.1.3-23.9.6Zm-16-90h-.3c-4.4,12.6-13.6,37.1-15,41.7l29.7.6C698,309.06,689.1,283.86,686.7,276.06Z"/><path class="cls-1" d="M432.2,440.76h-7.4c0-.3.1-2.5.1-6.6s.1-7.8.1-11.4v-6.9c0-3.2,0-5.6-.1-7.2-.1-3.7-.8-6.3-2.2-7.8s-3.5-2.2-6.4-2.2a17.17,17.17,0,0,0-6.1,1.3,49.48,49.48,0,0,0-8,4v17.9c0,5.2,0,9.5.1,13s.1,5.4.1,5.8H395c0-.3,0-2.2.1-5.7s.1-7.5.1-12.2v-7.1c0-3.2,0-5.5-.1-7a23.37,23.37,0,0,0-.4-3.9,8.2,8.2,0,0,0-1.2-3.2,6.55,6.55,0,0,0-2.5-2.2,10.35,10.35,0,0,0-4.4-.7,15.89,15.89,0,0,0-6.1,1.5,68.74,68.74,0,0,0-8.1,4.4V419c0,3.7,0,8.2.1,13.4s.1,7.9.1,8.3h-7.4c0-.3,0-2.1.1-5.5s.1-9,.1-16.8v-10.3c0-4.3-.1-9.3-.2-14.8h7.3v5.4h0a43.65,43.65,0,0,1,7.9-4.4,20.17,20.17,0,0,1,8.4-2.2,14.19,14.19,0,0,1,7.7,1.9,11.48,11.48,0,0,1,4.4,4.9h.1a67.12,67.12,0,0,1,9.9-5.1,21.14,21.14,0,0,1,7.7-1.7c4.3,0,7.7,1.3,10.1,3.8s3.6,5.9,3.6,10.2c0,3.3,0,6.1-.1,8.4s-.1,4.7-.1,7.2c0,5.2,0,9.7.1,13.3Z"/><path class="cls-1" d="M481.6,414.06v26.8c-.3,0-1.8.1-4.4.4s-5.9.3-10,.3a40.11,40.11,0,0,1-7.7-.7,27.94,27.94,0,0,1-6.7-2,16.92,16.92,0,0,1-6.1-4.7,12.37,12.37,0,0,1,.4-14.9,19.85,19.85,0,0,1,7.6-5.3,48.79,48.79,0,0,1,8.1-2.3,88.89,88.89,0,0,1,11.6-1.5,13.26,13.26,0,0,0-1.8-6,9.65,9.65,0,0,0-4.5-3.6,16.35,16.35,0,0,0-4.6-1.2,49.81,49.81,0,0,0-5.9-.4c-1.4,0-2.6,0-3.6.1s-2.3.1-4,.2l.7-6.2c.5,0,1.4-.1,2.8-.2s3.3-.1,5.7-.1a42.21,42.21,0,0,1,9.9,1.1,17.57,17.57,0,0,1,7.2,3.7,14.75,14.75,0,0,1,4,6C481.2,406.06,481.6,409.56,481.6,414.06Zm-7.2,11.3v-9.6c-1.4.1-3.8.3-7.2.8a42.71,42.71,0,0,0-8.7,2.1,13.93,13.93,0,0,0-4.7,3,6.27,6.27,0,0,0-2,4.9,7.65,7.65,0,0,0,1.7,5.1,11.22,11.22,0,0,0,4.7,3,24,24,0,0,0,5.1,1.1,55.43,55.43,0,0,0,5.9.3h2.3c.9,0,1.9-.1,2.9-.1v-10.6Z"/><path class="cls-1" d="M506.7,384.26h-8.2v-8.1h8.2Zm-.4,56.5h-7.4c0-.5.1-3.6.1-9.2s.1-10.3.1-14V407c0-3.9-.1-8.4-.2-13.6h7.4c-.1,4.5-.1,8.7-.2,12.6s-.1,7.4-.1,10.5c0,7.3,0,13.1.1,17.5S506.3,440.66,506.3,440.76Z"/><path class="cls-1" d="M549.7,427.06a11.77,11.77,0,0,1-1.7,6.2,13.22,13.22,0,0,1-4.4,4.4,22,22,0,0,1-6.8,2.7,38.76,38.76,0,0,1-8.7.9c-1.5,0-3.1-.1-4.8-.2a15.32,15.32,0,0,1-2.8-.3l-.3-6.1q.45,0,3.3.3c1.9.1,3.8.2,5.6.2a37.29,37.29,0,0,0,4.2-.3,16,16,0,0,0,4.3-1,8.77,8.77,0,0,0,3.5-2.5,6.15,6.15,0,0,0,1.1-3.6,4.45,4.45,0,0,0-1-3.1,12.53,12.53,0,0,0-2.7-2.3,44.87,44.87,0,0,0-5.1-2.7c-2.2-1-4-1.9-5.5-2.7a14.93,14.93,0,0,1-4.8-4.5,11.17,11.17,0,0,1-1.7-6.1,10.35,10.35,0,0,1,1.9-6.2,14.56,14.56,0,0,1,5.1-4.4,17.53,17.53,0,0,1,6.1-2,48.65,48.65,0,0,1,6.5-.5c1.9,0,3.5,0,4.7.1s1.9.1,2.1.1l.5,6.2c-.2,0-1.2-.1-2.9-.2s-3.6-.2-5.6-.2a18.4,18.4,0,0,0-4.1.4,12.76,12.76,0,0,0-3.3,1.1,7.24,7.24,0,0,0-2.9,2.5,5.41,5.41,0,0,0-.9,2.8,4.72,4.72,0,0,0,1.2,3.2,10.91,10.91,0,0,0,2.9,2.3c1.3.7,3,1.6,5.3,2.7a47.5,47.5,0,0,1,4.8,2.5,16,16,0,0,1,5,4.6A8.19,8.19,0,0,1,549.7,427.06Z"/><path class="cls-1" d="M604.5,417.06a28.2,28.2,0,0,1-1.9,10.4A24.69,24.69,0,0,1,597,436a20.57,20.57,0,0,1-6.9,4.5,24.55,24.55,0,0,1-16.9,0,20,20,0,0,1-7-4.5,23.16,23.16,0,0,1-5.5-8.4,28.88,28.88,0,0,1-1.9-10.6,28.56,28.56,0,0,1,1.7-9.9,22,22,0,0,1,5.2-8.1,20.27,20.27,0,0,1,7.3-5,22,22,0,0,1,8.8-1.8,22.62,22.62,0,0,1,8.8,1.6,20.85,20.85,0,0,1,7,4.8,24.47,24.47,0,0,1,5.3,8.3A28,28,0,0,1,604.5,417.06Zm-7.5.3a28.15,28.15,0,0,0-1.4-8.6,17.43,17.43,0,0,0-4.4-7,12.06,12.06,0,0,0-4.3-2.7,15.48,15.48,0,0,0-5.2-1,13.67,13.67,0,0,0-5.6,1,14.92,14.92,0,0,0-4.5,3.2,16.15,16.15,0,0,0-3.9,6.5,22.45,22.45,0,0,0-1.4,8.2,25,25,0,0,0,1.5,8.8,16.38,16.38,0,0,0,4.7,6.9,12.67,12.67,0,0,0,4.2,2.5,14.4,14.4,0,0,0,5.1.9,14.16,14.16,0,0,0,5.5-1,13.66,13.66,0,0,0,4.5-3,18.46,18.46,0,0,0,4.1-6.6A31,31,0,0,0,597,417.36Z"/><path class="cls-1" d="M656.3,440.76h-7.4c0-.9.1-3.8.1-8.7s.1-7.9.1-9.1v-7.2c0-3.2,0-5.5-.1-7-.1-3.6-.8-6.2-2.1-7.7s-3.5-2.3-6.7-2.3a20.54,20.54,0,0,0-7.1,1.7,56.57,56.57,0,0,0-8.5,4.3v14.8c0,3.6,0,8,.1,13.1s.1,7.8.1,8.1h-7.4c0-.2,0-2.1.1-5.7s.1-9,.1-16.1v-11.5c0-4.4-.1-9.1-.2-14.1h7.3v5.5a67.75,67.75,0,0,1,10.9-5.2,23.07,23.07,0,0,1,7.3-1.5,12.72,12.72,0,0,1,9.6,3.8c2.4,2.5,3.6,6,3.6,10.3,0,3.9,0,7.3-.1,10.2s-.1,5.2-.1,7c0,2.8,0,6.4.1,10.7S656.3,440.56,656.3,440.76Z"/><path class="cls-1" d="M678.9,441h-6.5v-7h6.5Z"/><path class="cls-1" d="M712,436.66l-.4,4.4h-1.8a39.91,39.91,0,0,1-7.9-.8,23.59,23.59,0,0,1-6.6-2.4,16.24,16.24,0,0,1-6.2-5.7,14.49,14.49,0,0,1-2.2-7.9,13.94,13.94,0,0,1,2-7.2,16.09,16.09,0,0,1,5.3-5.4,23.39,23.39,0,0,1,7-2.9,34.11,34.11,0,0,1,8.5-1H711l.3,4.4h-1a37.17,37.17,0,0,0-6.2.4,22.13,22.13,0,0,0-5,1.5,11.09,11.09,0,0,0-7,10.1,11,11,0,0,0,1.8,6.4,12.14,12.14,0,0,0,4.7,4,18.69,18.69,0,0,0,5.2,1.6,38.62,38.62,0,0,0,6.1.5H712Z"/><path class="cls-1" d="M743.3,422.26V441c-.2,0-1.2.1-3,.2s-4.1.2-7,.2a32.87,32.87,0,0,1-5.4-.5,18.65,18.65,0,0,1-4.7-1.4,10.68,10.68,0,0,1-4.2-3.3,8.62,8.62,0,0,1,.3-10.4,14.31,14.31,0,0,1,5.3-3.7,31.5,31.5,0,0,1,5.7-1.6,79.69,79.69,0,0,1,8.1-1.1,8.69,8.69,0,0,0-1.3-4.2,6.8,6.8,0,0,0-3.2-2.5,10.74,10.74,0,0,0-3.2-.8,25.53,25.53,0,0,0-4.1-.2,18.52,18.52,0,0,0-2.5.1c-.7,0-1.6.1-2.8.2l.5-4.3c.3,0,1-.1,1.9-.1s2.3-.1,4-.1a28.44,28.44,0,0,1,6.9.8,11.37,11.37,0,0,1,5,2.6,10.36,10.36,0,0,1,2.8,4.2A22.55,22.55,0,0,1,743.3,422.26Zm-5,7.9v-6.7a35.06,35.06,0,0,0-5,.6,21.87,21.87,0,0,0-6,1.5,9.73,9.73,0,0,0-3.3,2.1,4.6,4.6,0,0,0-1.4,3.4,5.22,5.22,0,0,0,1.2,3.6,7.83,7.83,0,0,0,3.3,2.1,18,18,0,0,0,3.5.8,27.48,27.48,0,0,0,4.1.2h1.6a14.08,14.08,0,0,0,2-.1v-7.5Z"/><path class="cls-2" d="M371.6,93.86l11.1,8.8c1.9,1.5,3.7,3,5.6,4.4l5.7,4.1,5.7,4.1c1.9,1.4,3.8,2.8,5.8,4.1l11.8,7.8A538.5,538.5,0,0,0,466.4,155l6.3,3.2,6.4,2.9c4.3,1.9,8.5,4,12.8,5.8l13,5.5,3.3,1.4,3.3,1.3,6.6,2.5,6.6,2.5,6.6,2.4c4.4,1.5,8.8,3.2,13.3,4.7l13.4,4.3,3.4,1.1,3.4,1,6.7,2A792.81,792.81,0,0,0,681.4,219q27.75,3.9,55.8,6c4.7.4,9.3.6,14,.9s9.3.5,14,.6c9.3.3,18.7.5,28,.3-9.3.7-18.7,1-28,1.2-4.7.1-9.4.1-14,.1s-9.4,0-14-.2c-18.7-.4-37.5-1.4-56.2-3.1A776.32,776.32,0,0,1,569.2,207l-6.9-1.6-3.5-.8-3.4-.9L541.6,200c-4.6-1.3-9.1-2.7-13.7-4-2.3-.7-4.6-1.3-6.9-2.1l-6.8-2.2-6.8-2.2-3.4-1.1-3.4-1.2-13.5-4.9c-4.5-1.7-8.9-3.5-13.4-5.3l-6.7-2.7-6.6-2.9a526.84,526.84,0,0,1-52.1-26l-12.7-7.5c-2.1-1.2-4.1-2.6-6.2-3.9l-6.2-4-6.2-4c-2.1-1.4-4-2.9-6.1-4.3l-12.1-8.6a12.51,12.51,0,0,1-3.3-16.5,10.62,10.62,0,0,1,15.4-3.1c.1.1.3.2.4.3Z"/><path class="cls-2" d="M0,279.46a679.35,679.35,0,0,0,111-38.1l6.7-3,3.3-1.5,3.3-1.6,13.1-6.5,3.3-1.6c1.1-.5,2.1-1.1,3.2-1.7l6.4-3.5,6.4-3.5,3.2-1.7c1.1-.6,2.1-1.2,3.1-1.8l12.5-7.4,3.1-1.9,3-2,6.1-4c4.1-2.6,8.2-5.2,12.1-8.1l11.8-8.4c31-23,59.4-49.2,83.6-78.7a400.89,400.89,0,0,0,32.9-46.3c4.9-8.1,9.5-16.3,13.6-24.6,1.1-2.1,2-4.2,3-6.3s1.9-4.2,2.9-6.3,1.8-4.2,2.6-6.3c.4-1.1.8-2.1,1.2-3.1l.6-1.5c.2-.5.4-1.1.5-1.4A12.34,12.34,0,0,1,367.7.46a12.1,12.1,0,0,1,8.4,14.9,1.85,1.85,0,0,0-.2.7l-.1.3a20.75,20.75,0,0,1-.8,2c-.3.6-.5,1.2-.8,1.8-.5,1.2-1,2.4-1.6,3.6-1.1,2.4-2.2,4.6-3.3,6.9s-2.3,4.5-3.5,6.7L362.2,44c-4.9,8.8-10.3,17.2-15.9,25.5a430.68,430.68,0,0,1-37.1,46.8c-26.8,29.4-57.6,54.9-90.5,76.8L206.1,201c-4.1,2.7-8.5,5.1-12.7,7.6l-6.4,3.7-3.2,1.9-3.3,1.7-13,6.9c-1.1.6-2.2,1.2-3.3,1.7l-3.3,1.6-6.7,3.2-6.7,3.2c-1.1.5-2.2,1.1-3.4,1.6l-3.4,1.5-13.6,5.9-3.4,1.5-3.5,1.3-6.9,2.7A692.11,692.11,0,0,1,0,279.46Z"/><path class="cls-1" d="M345.4,396.16a1,1,0,0,0-.7-.7h-.3c-2.1-.2-4.2,0-6.2-.1s-4.1.1-6.1.2c-4,.2-8,.6-12,1-7.9.8-15.7,2-23.3,3.2-15.3,2.5-30.3,5.3-44.9,7.5-3.6.6-7.3,1-10.9,1.4-1.8.2-3.6.4-5.4.5l-5.3.3c-1.4.1-2.8.1-4.2.1-11.8-.6-19.6-3.9-24.7-8.4-4-7.1-8.8-20.9-4.8-40.2.8-2.8,1.5-5.6,2.2-8.4.1-.2.1-.4.2-.6h0c.2-.8.4-1.7.6-2.5,1.9-7.7,3.5-15.5,4.9-23.3a232.2,232.2,0,0,0,3-23.5,156.25,156.25,0,0,0-.1-23.7,93.55,93.55,0,0,0-1.9-11.8,54.13,54.13,0,0,0-4-11.5,40.12,40.12,0,0,0-7.2-10.5,34.59,34.59,0,0,0-11.3-7.6,41.55,41.55,0,0,0-14-2.8,55.61,55.61,0,0,0-7.1.2c-1.2.1-2.3.2-3.5.4-.6.1-1.1.1-1.7.2h-.9a1.42,1.42,0,0,0-.6-.2.81.81,0,0,0-.9.7.9.9,0,0,0,.1.5,1.38,1.38,0,0,0,.3.4c.1,0,.1.1.2.1l.1.1a.35.35,0,0,1,.2.1,6.37,6.37,0,0,1,.7.2,4.4,4.4,0,0,0,1,.2l1.8.3c1.2.2,2.4.4,3.5.6a54.73,54.73,0,0,1,6.4,1.5,31,31,0,0,1,10,4.8,20.75,20.75,0,0,1,3.4,3.2,23.59,23.59,0,0,1,2.6,3.6c.7,1.3,1.4,2.6,2,4a32.21,32.21,0,0,1,1.4,4.4,35.6,35.6,0,0,1,1,4.7,38.53,38.53,0,0,1,.7,4.9c.3,3.4.6,6.8.6,10.3v5.3c0,1.8-.1,3.6-.2,5.4-.1,3.6-.3,7.3-.6,11-.9,11.1-2,22.4-3.2,33.9-11.1,46.6-1.9,63,.4,67.9a40.31,40.31,0,0,0,20.2,19.8,53.87,53.87,0,0,0,12,3.8,83.33,83.33,0,0,0,12.1,1.5,126.26,126.26,0,0,0,23.8-1.3,227.23,227.23,0,0,0,23.2-4.8c7.6-2,15.2-4.3,22.7-6.9s14.9-5.4,22.3-8.5,14.7-6.3,21.9-9.7A.85.85,0,0,0,345.4,396.16ZM156.1,235.86c0,.1.1.1,0,.2Z"/><path class="cls-2" d="M359.9,229.46H326.3a9.82,9.82,0,0,1-9.8-9.8v-33.6a9.82,9.82,0,0,1,9.8-9.8h33.6a9.82,9.82,0,0,1,9.8,9.8v33.6A9.75,9.75,0,0,1,359.9,229.46Z"/></g></g></svg>