<?xml version="1.0" encoding="iso-8859-1"?>
<!-- Generator: Adobe Illustrator 19.0.0, SVG Export Plug-In . SVG Version: 6.00 Build 0)  -->
<svg xmlns="http://www.w3.org/2000/svg" xmlns:xlink="http://www.w3.org/1999/xlink" version="1.1" id="Capa_1" x="0px" y="0px" viewBox="0 0 512 512" style="enable-background:new 0 0 512 512;" xml:space="preserve">
<g>
	<g>
		<path d="M390.478,153.136C385.41,95.774,343.972,47.249,287.602,33.729C267.734,12.229,239.926,0,210.5,0    c-29.426,0-57.233,12.228-77.101,33.729c-26.126,6.248-49.495,20-67.847,39.982C45.9,95.107,33.878,121.636,30.784,150.425    L0.086,435.394L0,436.194V512h361v-90h-30v-15c0-24.813,20.187-45,45-45h31c57.897,0,105-47.103,105-105v-73.735L390.478,153.136z     M331,482H30v-30h301V482z M482,257c0,41.355-33.645,75-75,75h-31c-41.355,0-75,33.645-75,75v15H31.703l28.909-268.366    c4.843-45.068,39.275-82.735,83.733-91.598l5.186-1.034l3.391-4.058C167.232,39.82,188.219,30,210.5,30s43.267,9.82,57.576,26.942    L271.468,61l5.186,1.034c43.901,8.75,76.97,44.585,83.25,87.966H302v30h57.491c-6.968,34.192-37.271,60-73.491,60h-32v-60h-30    v125.5c0,30.052-24.449,54.5-54.5,54.5c-29.969,0-54.366-24.315-54.5-54.254c0.425-7.403,9.301-90.296,15.211-144.634    C132.117,143.375,147.073,130,165,130v-30c-33.291,0-61.069,24.895-64.615,57.888C94.639,210.721,85,300.152,85,305.5    c0,46.594,37.907,84.5,84.5,84.5s84.5-37.906,84.5-84.5V270h32c51.497,0,94.451-37.264,103.32-86.243L482,206.735V257z"/>
	</g>
</g>
<g>
</g>
<g>
</g>
<g>
</g>
<g>
</g>
<g>
</g>
<g>
</g>
<g>
</g>
<g>
</g>
<g>
</g>
<g>
</g>
<g>
</g>
<g>
</g>
<g>
</g>
<g>
</g>
<g>
</g>
</svg>
