<?xml version="1.0" encoding="iso-8859-1"?>
<!-- Generator: Adobe Illustrator 19.0.0, SVG Export Plug-In . SVG Version: 6.00 Build 0)  -->
<svg version="1.1" id="Layer_1" xmlns="http://www.w3.org/2000/svg" xmlns:xlink="http://www.w3.org/1999/xlink" x="0px" y="0px"
	 viewBox="0 0 502.34 502.34" style="enable-background:new 0 0 502.34 502.34;" xml:space="preserve">
<g transform="translate(1 1)">
	<g>
		<g>
			<path d="M491.679,243.295H356.434h-83.079L488.781,27.868c3.864-3.864,3.864-9.66,0-13.525c-3.864-3.864-9.66-3.864-13.525,0
				L246.306,243.295H8.66c-5.796,0-9.66,3.864-9.66,9.66v57.962c0,5.796,3.864,9.66,9.66,9.66h160.362L11.558,478.042
				c-3.864,3.864-3.864,9.66,0,13.525c1.932,1.932,3.864,2.898,6.762,2.898c2.898,0,4.83-0.966,6.762-2.898l170.989-170.989h160.362
				h135.245c5.796,0,9.66-3.864,9.66-9.66v-57.962C501.34,247.159,497.475,243.295,491.679,243.295z M18.321,301.257v-38.642
				h208.664l-38.642,38.642H18.321z M254.034,262.615h92.74v38.642H215.392L254.034,262.615z M482.019,301.257H366.094v-38.642
				h115.924V301.257z"/>
			<path d="M18.321,227.838c5.796,0,9.66-3.864,9.66-9.66c0-45.404,21.253-81.147,48.302-81.147h48.302
				c4.83,0,8.694-2.898,9.66-7.728c0.966-3.864-0.966-7.728-3.864-9.66c-9.66-7.728-15.457-18.355-15.457-30.913
				c0-21.253,17.389-38.641,38.641-38.641c5.796,0,9.66-3.864,9.66-9.66s-3.864-9.66-9.66-9.66
				c-31.879,0-57.962,26.083-57.962,57.962c0,10.626,2.898,20.287,7.728,28.981H76.283c-38.641,0-67.623,43.472-67.623,100.468
				C8.66,223.974,12.525,227.838,18.321,227.838z"/>
			<path d="M178.683,24.004c14.491,6.762,23.185,20.287,23.185,35.743c0,21.253-17.389,38.642-38.641,38.642
				c-5.796,0-9.66,3.864-9.66,9.66c0,4.83,2.898,8.694,6.762,9.66c6.762,1.932,12.558,10.626,12.558,19.321
				c0,10.626-8.694,19.321-19.321,19.321H95.604c-28.015,0-48.302,26.083-48.302,61.826c0,5.796,3.864,9.66,9.66,9.66
				c5.796,0,9.66-3.864,9.66-9.66c0-24.151,12.559-42.506,28.981-42.506h57.962c21.253,0,38.642-17.389,38.642-38.642
				c0-7.728-2.898-16.423-7.728-23.185c21.253-8.694,36.709-29.947,36.709-54.098c0-23.185-13.524-43.472-34.777-53.132
				c-4.83-1.932-10.626,0-12.558,4.83S173.853,22.072,178.683,24.004z"/>
		</g>
	</g>
</g>
<g>
</g>
<g>
</g>
<g>
</g>
<g>
</g>
<g>
</g>
<g>
</g>
<g>
</g>
<g>
</g>
<g>
</g>
<g>
</g>
<g>
</g>
<g>
</g>
<g>
</g>
<g>
</g>
<g>
</g>
</svg>
