<?xml version="1.0" encoding="iso-8859-1"?>
<!-- Generator: Adobe Illustrator 19.0.0, SVG Export Plug-In . SVG Version: 6.00 Build 0)  -->
<svg version="1.1" id="Capa_1" xmlns="http://www.w3.org/2000/svg" xmlns:xlink="http://www.w3.org/1999/xlink" x="0px" y="0px"
	 viewBox="0 0 508 508" style="enable-background:new 0 0 508 508;" xml:space="preserve">
<g>
	<g>
		<path d="M493.9,0H14.1C6.3,0,0,6.3,0,14.1v479.8c0,7.8,6.3,14.1,14.1,14.1h479.8c7.8,0,14.1-6.3,14.1-14.1V14.1
			C508,6.3,501.7,0,493.9,0z M239.9,479.8H28.2V28.2h211.7V479.8z M479.8,479.8H268.1V28.2h211.7V479.8z"/>
	</g>
</g>
<g>
	<g>
		<path d="M192.4,268.3c-5.5-5.5-14.4-5.5-20,0l-24.2,24.2V181.4c0-7.8-6.3-14.1-14.1-14.1c-7.8,0-14.1,6.3-14.1,14.1v111.2
			l-24.2-24.2c-5.5-5.5-14.4-5.5-20,0c-5.5,5.5-5.5,14.4,0,20l48.3,48.2c2.8,2.8,6.4,4.1,10,4.1c3.6,0,7.2-1.4,10-4.1l48.3-48.3
			C197.9,282.8,197.9,273.9,192.4,268.3z"/>
	</g>
</g>
<g>
	<g>
		<path d="M432.3,219.6L384,171.3c-2.8-2.8-6.4-4.1-10-4.1c-3.6,0-7.2,1.4-10,4.1l-48.3,48.3c-5.5,5.5-5.5,14.4,0,20
			c5.5,5.5,14.4,5.5,20,0l24.2-24.2v111.2c0,7.8,6.3,14.1,14.1,14.1c7.8,0,14.1-6.3,14.1-14.1V215.4l24.2,24.2
			c5.5,5.5,14.4,5.5,20,0C437.8,234.1,437.8,225.2,432.3,219.6z"/>
	</g>
</g>
<g>
</g>
<g>
</g>
<g>
</g>
<g>
</g>
<g>
</g>
<g>
</g>
<g>
</g>
<g>
</g>
<g>
</g>
<g>
</g>
<g>
</g>
<g>
</g>
<g>
</g>
<g>
</g>
<g>
</g>
</svg>
