<?xml version="1.0" encoding="iso-8859-1"?>
<!-- Generator: Adobe Illustrator 19.0.0, SVG Export Plug-In . SVG Version: 6.00 Build 0)  -->
<svg version="1.1" id="Layer_1" xmlns="http://www.w3.org/2000/svg" xmlns:xlink="http://www.w3.org/1999/xlink" x="0px" y="0px"
	 viewBox="0 0 512 512" style="enable-background:new 0 0 512 512;" xml:space="preserve">
<g>
	<g>
		<g>
			<path d="M128,435.207H8.533C3.814,435.207,0,439.03,0,443.74c0,4.71,3.814,8.533,8.533,8.533H128
				c4.719,0,8.533-3.823,8.533-8.533C136.533,439.03,132.719,435.207,128,435.207z"/>
			<path d="M102.4,418.123c56.465,0,102.4-45.944,102.4-102.4c0-28.271-11.273-54.596-31.744-74.129
				c-3.396-3.243-8.815-3.115-12.066,0.282c-3.251,3.413-3.123,8.815,0.282,12.066c17.058,16.282,26.462,38.212,26.462,61.781
				c0,47.053-38.281,85.333-85.333,85.333s-85.333-38.281-85.333-85.333c0-47.061,38.281-85.333,85.333-85.333
				c4.719,0,8.533-3.823,8.533-8.533c0-4.719-3.814-8.533-8.533-8.533c-56.465,0-102.4,45.935-102.4,102.4
				C0,372.179,45.935,418.123,102.4,418.123z"/>
			<path d="M145.067,179.189h4.326l-49.297,119.697c-8.311,1.135-14.763,8.209-14.763,16.836c0,9.412,7.654,17.067,17.067,17.067
				c9.412,0,17.067-7.654,17.067-17.067c0-3.908-1.365-7.458-3.584-10.342l48.154-116.924l54.008,78.413
				c2.662,3.883,7.962,4.872,11.861,2.193c3.891-2.679,4.864-7.987,2.185-11.87l-53.726-78.003h17.903
				c14.114,0,25.6-11.486,25.6-25.6c0-14.123-11.486-25.6-25.6-25.6h-51.2c-4.719,0-8.533,3.814-8.533,8.533v34.133
				C136.533,175.367,140.348,179.189,145.067,179.189z M153.6,145.056h42.667c4.71,0,8.533,3.823,8.533,8.533
				c0,4.702-3.823,8.533-8.533,8.533H153.6V145.056z"/>
			<path d="M401.067,221.856c0,4.71,3.814,8.533,8.533,8.533c47.053,0,85.333,38.272,85.333,85.333
				c0,47.053-38.281,85.333-85.333,85.333s-85.333-38.281-85.333-85.333c0-25.574,11.324-49.579,31.087-65.877
				c3.627-2.995,4.147-8.371,1.143-12.006c-2.995-3.627-8.363-4.164-12.015-1.16c-23.689,19.55-37.282,48.35-37.282,79.044
				c0,56.456,45.935,102.4,102.4,102.4S512,372.179,512,315.723c0-56.465-45.935-102.4-102.4-102.4
				C404.881,213.323,401.067,217.137,401.067,221.856z"/>
			<path d="M264.533,435.207H179.2c-4.719,0-8.533,3.823-8.533,8.533c0,4.71,3.814,8.533,8.533,8.533h85.333
				c4.719,0,8.533-3.823,8.533-8.533C273.067,439.03,269.252,435.207,264.533,435.207z"/>
			<path d="M264.533,274.268v-26.812c4.719,0,8.533-3.823,8.533-8.533c0-4.719-3.814-8.533-8.533-8.533h-17.067
				c-4.719,0-8.533,3.814-8.533,8.533c0,4.71,3.814,8.533,8.533,8.533v26.812c-14.686,3.814-25.6,17.058-25.6,32.922
				c0,15.855,10.914,29.099,25.6,32.922v26.812c-4.719,0-8.533,3.814-8.533,8.533c0,4.71,3.814,8.533,8.533,8.533h17.067
				c4.719,0,8.533-3.823,8.533-8.533c0-4.719-3.814-8.533-8.533-8.533v-26.812c14.686-3.823,25.6-17.067,25.6-32.922
				C290.133,291.326,279.219,278.082,264.533,274.268z M256,324.256c-9.404,0-17.067-7.654-17.067-17.067
				c0-9.412,7.663-17.067,17.067-17.067c9.412,0,17.067,7.654,17.067,17.067C273.067,316.602,265.412,324.256,256,324.256z"/>
			<path d="M396.45,304.971c-2.406,2.944-3.917,6.656-3.917,10.752c0,9.412,7.663,17.067,17.067,17.067s17.067-7.654,17.067-17.067
				c0-8.448-6.187-15.428-14.242-16.785l-38.511-102.682h60.919c10.214,0,16.154-8.166,17.271-15.394l8.525-42.667
				c0.503-2.509-0.145-5.111-1.766-7.083c-1.621-1.98-4.036-3.123-6.596-3.123h-76.8c-4.719,0-8.533,3.814-8.533,8.533
				c0,4.71,3.814,8.533,8.533,8.533h66.389l-6.519,32.649c-0.128,0.589-0.495,1.417-0.503,1.485h-67.319l-26.718-71.262
				c-0.017-0.034-0.043-0.051-0.051-0.085c-0.017-0.034-0.009-0.068-0.017-0.094l-17.067-42.667
				c-1.749-4.378-6.758-6.477-11.093-4.753c-4.378,1.749-6.511,6.716-4.762,11.093l15.548,38.835l-32.094,56.166
				c-2.347,4.088-0.922,9.301,3.174,11.64c1.331,0.759,2.79,1.126,4.224,1.126c2.97,0,5.845-1.544,7.415-4.301l25.122-43.955
				l20.531,54.758l-65.033,73.156c-3.14,3.524-2.816,8.917,0.708,12.049c1.621,1.451,3.644,2.159,5.666,2.159
				c2.347,0,4.693-0.973,6.374-2.867l59.059-66.432L396.45,304.971z"/>
			<path d="M503.467,435.207H366.933c-4.719,0-8.533,3.823-8.533,8.533c0,4.71,3.814,8.533,8.533,8.533h136.533
				c4.719,0,8.533-3.823,8.533-8.533C512,439.03,508.186,435.207,503.467,435.207z"/>
			<path d="M332.8,435.207h-17.067c-4.719,0-8.533,3.823-8.533,8.533c0,4.71,3.814,8.533,8.533,8.533H332.8
				c4.719,0,8.533-3.823,8.533-8.533C341.333,439.03,337.519,435.207,332.8,435.207z"/>
		</g>
	</g>
</g>
<g>
</g>
<g>
</g>
<g>
</g>
<g>
</g>
<g>
</g>
<g>
</g>
<g>
</g>
<g>
</g>
<g>
</g>
<g>
</g>
<g>
</g>
<g>
</g>
<g>
</g>
<g>
</g>
<g>
</g>
</svg>
