<?xml version="1.0" encoding="iso-8859-1"?>
<!-- Generator: Adobe Illustrator 19.0.0, SVG Export Plug-In . SVG Version: 6.00 Build 0)  -->
<svg version="1.1" id="Layer_1" xmlns="http://www.w3.org/2000/svg" xmlns:xlink="http://www.w3.org/1999/xlink" x="0px" y="0px"
	 viewBox="0 0 512 512" style="enable-background:new 0 0 512 512;" xml:space="preserve">
<g transform="translate(1 1)">
	<g>
		<g>
			<path d="M385.169,128.205V68.424c0-5.207-3.471-8.678-8.678-8.678h-22.049c2.93-5.034,4.632-10.857,4.685-17.058
				c20.299,1.343,43.397,7.22,43.397,17.058c0,5.207,3.471,8.678,8.678,8.678c5.207,0,8.678-3.471,8.678-8.678
				c0-26.176-38.64-32.742-59.032-34.275c4.484-2.836,18.913-9.115,59.032-9.115c5.207,0,8.678-3.471,8.678-8.678
				S425.088-1,419.881-1c-47.757,0-66.668,8.412-73.888,16.255c-5.935-4.733-13.434-7.577-21.57-7.577
				c-12.722,0-23.895,6.941-29.939,17.218c-15.212-0.224-62.988,1.423-97.627,33.114c-25.166,22.563-37.315,55.539-37.315,97.193
				v138.847v43.39v52.068v0.868c0.868,8.678,1.736,36.447-7.81,46.861c-0.279,0.372-0.57,0.708-0.868,1.023v-5.362
				c0-4.339-3.471-7.81-7.81-8.678l-69.424-8.678c-2.603-0.868-5.207,0-6.942,1.736s-2.603,4.339-2.603,6.942v52.068
				c0,2.603,0.868,5.207,2.603,6.942c1.736,0.868,4.339,1.736,6.075,1.736h0.868l69.424-8.678c4.339-0.868,7.81-4.339,7.81-8.678
				v-9.941c5.206-1.573,9.917-4.616,13.885-9.15c15.62-17.356,13.017-53.803,12.149-59.878v-42.522h26.034v78.102v34.712v26.034
				c0,13.885,11.281,26.034,26.034,26.034h190.915c14.753,0,26.034-12.149,26.034-26.034v-26.034V424.22V233.305
				C445.915,188.574,421.413,149.291,385.169,128.205z M133.508,458.932l-52.068,6.942v-32.108l52.068,6.075V458.932z
				 M428.559,233.305v182.237H220.288v-78.102v-43.39v-60.746c0-39.301,22.066-73.697,54.419-91.416
				c0.386-0.147,0.762-0.332,1.12-0.571c30.373-15.62,65.953-15.62,96.325,0c0.956,0.478,1.65,0.688,2.369,0.785
				C406.666,159.883,428.559,194.159,428.559,233.305z M428.559,450.254H220.288v-17.356h208.271V450.254z M367.814,119.624
				c-11.871-4.452-24.376-6.993-36.973-7.639c-0.095-0.005-0.191-0.011-0.286-0.016c-0.844-0.041-1.689-0.073-2.533-0.097
				c-0.199-0.006-0.397-0.015-0.596-0.02c-1-0.024-2-0.038-3.001-0.038s-2.001,0.014-3.001,0.038
				c-0.199,0.005-0.397,0.014-0.596,0.02c-0.845,0.024-1.689,0.056-2.533,0.097c-0.096,0.005-0.191,0.011-0.286,0.016
				c-12.597,0.646-25.102,3.188-36.973,7.639V77.102h86.78V119.624z M324.424,25.034c9.546,0,17.356,7.81,17.356,17.356
				s-7.81,17.356-17.356,17.356c-9.546,0-17.356-7.81-17.356-17.356S314.878,25.034,324.424,25.034z M208.139,71.027
				c27.52-25.506,65.416-28.687,81.578-28.82c0,0.061-0.005,0.122-0.005,0.183c0,6.313,1.716,12.241,4.693,17.356h-22.049
				c-5.207,0-8.678,3.471-8.678,8.678v59.781c-36.243,21.086-60.746,60.369-60.746,105.1v52.068h-26.034V155.203
				C176.898,118.756,187.312,90.119,208.139,71.027z M176.898,328.763v-26.034h26.034v26.034H176.898z M419.881,493.644H228.966
				c-4.339,0-8.678-3.471-8.678-8.678V467.61h208.271v17.356C428.559,489.305,425.088,493.644,419.881,493.644z"/>
			<path d="M298.39,207.271h52.068c5.207,0,8.678-3.471,8.678-8.678s-3.471-8.678-8.678-8.678H298.39
				c-5.207,0-8.678,3.471-8.678,8.678S293.183,207.271,298.39,207.271z"/>
			<path d="M367.814,224.627h-86.78c-5.207,0-8.678,3.471-8.678,8.678c0,5.207,3.471,8.678,8.678,8.678h86.78
				c5.207,0,8.678-3.471,8.678-8.678C376.492,228.098,373.02,224.627,367.814,224.627z"/>
			<path d="M324.424,276.695c-5.207,0-8.678,3.471-8.678,8.678v43.39c0,5.207,3.471,8.678,8.678,8.678s8.678-3.471,8.678-8.678
				v-43.39C333.102,280.166,329.63,276.695,324.424,276.695z"/>
			<path d="M324.424,354.797c-5.207,0-8.678,3.471-8.678,8.678c0,5.207,3.471,8.678,8.678,8.678s8.678-3.471,8.678-8.678
				C333.102,358.268,329.63,354.797,324.424,354.797z"/>
		</g>
	</g>
</g>
<g>
</g>
<g>
</g>
<g>
</g>
<g>
</g>
<g>
</g>
<g>
</g>
<g>
</g>
<g>
</g>
<g>
</g>
<g>
</g>
<g>
</g>
<g>
</g>
<g>
</g>
<g>
</g>
<g>
</g>
</svg>
