<?xml version="1.0" encoding="iso-8859-1"?>
<!-- Generator: Adobe Illustrator 19.0.0, SVG Export Plug-In . SVG Version: 6.00 Build 0)  -->
<svg version="1.1" id="Capa_1" xmlns="http://www.w3.org/2000/svg" xmlns:xlink="http://www.w3.org/1999/xlink" x="0px" y="0px"
	 viewBox="0 0 512 512" style="enable-background:new 0 0 512 512;" xml:space="preserve">
<g>
	<g>
		<path d="M462.38,431.312l-65.891-65.893c-33.386-33.386-86.603-35.107-122.061-5.206l-12.149-12.149
			c-11.004-11.004-28.908-11.004-39.912,0c-3.296,3.296-5.598,7.215-6.919,11.379l-12.513-12.513
			c-5.33-5.33-12.417-8.266-19.956-8.266s-14.626,2.936-19.956,8.266c-3.369,3.369-5.7,7.384-7.007,11.65l-11.65-11.65
			c-5.33-5.33-12.417-8.266-19.956-8.266c-7.538,0-14.626,2.936-19.956,8.266c-3.762,3.762-6.325,8.402-7.512,13.457
			c-10.451-5.721-23.572-4.571-32.641,3.684c-5.774,5.255-9.056,12.437-9.238,20.224c-0.183,7.79,2.749,15.115,8.258,20.623
			l15.055,15.055c2.935,2.935,7.693,2.935,10.627,0c2.935-2.935,2.935-7.693,0-10.627l-15.055-15.055
			c-5.268-5.268-5.035-14.096,0.469-19.103c5.12-4.662,13.465-4.275,18.601,0.86l44.842,44.842c0.093,0.093,0.192,0.174,0.29,0.261
			c0.671,14.872,12.921,26.819,27.98,26.934l78.292,0.588c0.019,0,0.038,0,0.057,0c4.124,0,7.483-3.328,7.514-7.459
			c0.031-4.15-3.308-7.54-7.459-7.571l-78.291-0.588c-7.274-0.055-13.148-6.017-13.093-13.292
			c0.054-7.274,6.011-13.184,13.291-13.093l76.26,0.574c2.535,0.718,5.372,0.083,7.367-1.912l29.284-29.284
			c29.364-29.365,77.145-29.365,106.509,0l65.89,65.89c3.056,3.056,8.217,2.851,11.028-0.431
			C465.297,438.568,465.115,434.048,462.38,431.312z M166.554,391.64c-9.785-0.052-18.47,4.899-23.593,12.454l-27.88-27.879
			c-5.144-5.144-5.144-13.513,0-18.657c5.144-5.143,13.513-5.144,18.657,0l34.093,34.093L166.554,391.64z M188.913,391.809
			c-0.311-0.519-15.265-15.596-15.265-15.596c-5.142-5.144-5.142-13.512,0.001-18.655c5.085-5.085,13.571-5.085,18.657,0
			l34.176,34.534L188.913,391.809z M245.075,389.07l-13.709-13.709c-3.437-5.125-2.897-12.144,1.628-16.67
			c5.145-5.144,13.514-5.143,18.657,0l11.9,11.9L245.075,389.07z"/>
	</g>
</g>
<g>
	<g>
		<path d="M396.49,497.199l-36.607-36.606c-1.776-1.776-4.323-2.547-6.787-2.055l-72.482,14.496H152.693l-27.083-27.083
			c-2.935-2.935-7.693-2.935-10.627,0c-2.935,2.935-2.935,7.693,0,10.627l29.284,29.284c1.409,1.41,3.32,2.201,5.313,2.201h131.778
			c0.495,0,0.988-0.049,1.474-0.146l69.267-13.854l33.761,33.762c3.057,3.056,8.217,2.851,11.028-0.431
			C399.407,504.454,399.226,499.934,396.49,497.199z"/>
	</g>
</g>
<g>
	<g>
		<path d="M504.485,290.571H487.82c-1.87-59.139-25.77-114.468-67.804-156.501C376.206,90.259,317.957,66.132,256,66.132
			S135.794,90.259,91.985,134.07c-42.034,42.033-65.934,97.361-67.804,156.501H7.515c-4.15,0-7.515,3.365-7.515,7.515v32.063
			c0,4.15,3.365,7.515,7.515,7.515h496.971c4.151,0,7.515-3.365,7.515-7.515v-32.063C512,293.934,508.636,290.571,504.485,290.571z
			 M496.971,322.633H15.029V305.6h80.658c4.15,0,7.515-3.365,7.515-7.515c0-4.15-3.365-7.515-7.515-7.515H39.221
			C43.196,174.426,138.904,81.162,256,81.162s212.804,93.264,216.779,209.409h-340.02c-4.15,0-7.515,3.365-7.515,7.515
			c0,4.15,3.365,7.515,7.515,7.515h364.211V322.633z"/>
	</g>
</g>
<g>
	<g>
		<path d="M256,2.007c-17.403,0-31.562,14.158-31.562,31.562S238.597,65.13,256,65.13c17.403,0,31.562-14.159,31.562-31.562
			C287.562,16.166,273.403,2.007,256,2.007z M256,50.101c-9.116,0-16.532-7.416-16.532-16.532c0-9.116,7.417-16.532,16.532-16.532
			s16.532,7.417,16.532,16.532C272.532,42.684,265.116,50.101,256,50.101z"/>
	</g>
</g>
<g>
	<g>
		<path d="M504.485,114.226c-4.089,0-16.532,0-16.532-24.548c0-4.15-3.364-7.515-7.515-7.515s-7.515,3.365-7.515,7.515
			c0,24.548-12.443,24.548-16.532,24.548c-4.151,0-7.515,3.365-7.515,7.515s3.364,7.515,7.515,7.515c4.089,0,16.532,0,16.532,24.548
			c0,4.15,3.364,7.515,7.515,7.515s7.515-3.365,7.515-7.515c0-24.548,12.443-24.548,16.532-24.548c4.151,0,7.515-3.365,7.515-7.515
			S508.636,114.226,504.485,114.226z M480.438,125.847c-1.09-1.508-2.291-2.88-3.601-4.107c1.31-1.227,2.511-2.598,3.601-4.107
			c1.09,1.508,2.291,2.88,3.601,4.107C482.73,122.968,481.528,124.339,480.438,125.847z"/>
	</g>
</g>
<g>
	<g>
		<path d="M408.297,42.085c-4.089,0-16.532,0-16.532-24.548c0-4.15-3.364-7.515-7.515-7.515s-7.515,3.365-7.515,7.515
			c0,24.548-12.443,24.548-16.532,24.548c-4.151,0-7.515,3.365-7.515,7.515c0,4.15,3.364,7.515,7.515,7.515
			c4.089,0,16.532,0,16.532,24.548c0,4.15,3.364,7.515,7.515,7.515s7.515-3.365,7.515-7.515c0-24.548,12.443-24.548,16.532-24.548
			c4.151,0,7.515-3.365,7.515-7.515C415.812,45.45,412.449,42.085,408.297,42.085z M384.25,53.706
			c-1.09-1.508-2.291-2.88-3.601-4.107c1.31-1.227,2.511-2.598,3.601-4.107c1.09,1.508,2.291,2.88,3.601,4.107
			C386.542,50.827,385.341,52.198,384.25,53.706z"/>
	</g>
</g>
<g>
	<g>
		<path d="M151.796,42.085c-4.089,0-16.532,0-16.532-24.548c0-4.15-3.365-7.515-7.515-7.515s-7.515,3.365-7.515,7.515
			c0,24.548-12.443,24.548-16.532,24.548c-4.15,0-7.515,3.365-7.515,7.515c0,4.15,3.365,7.515,7.515,7.515
			c4.089,0,16.532,0,16.532,24.548c0,4.15,3.365,7.515,7.515,7.515s7.515-3.365,7.515-7.515c0-24.548,12.443-24.548,16.532-24.548
			c4.15,0,7.515-3.365,7.515-7.515C159.311,45.45,155.947,42.085,151.796,42.085z M127.75,53.706c-1.09-1.508-2.292-2.88-3.6-4.107
			c1.309-1.227,2.51-2.598,3.6-4.107c1.09,1.508,2.292,2.88,3.6,4.107C130.041,50.827,128.84,52.198,127.75,53.706z"/>
	</g>
</g>
<g>
	<g>
		<path d="M55.609,114.226c-4.089,0-16.532,0-16.532-24.548c0-4.15-3.365-7.515-7.515-7.515s-7.515,3.365-7.515,7.515
			c0,24.548-12.443,24.548-16.532,24.548c-4.15,0-7.515,3.365-7.515,7.515s3.365,7.515,7.515,7.515c4.089,0,16.532,0,16.532,24.548
			c0,4.15,3.365,7.515,7.515,7.515s7.515-3.365,7.515-7.515c0-24.548,12.443-24.548,16.532-24.548c4.15,0,7.515-3.365,7.515-7.515
			S59.759,114.226,55.609,114.226z M31.562,125.847c-1.09-1.508-2.292-2.88-3.6-4.107c1.309-1.227,2.51-2.598,3.6-4.107
			c1.09,1.508,2.291,2.88,3.6,4.107C33.853,122.968,32.652,124.339,31.562,125.847z"/>
	</g>
</g>
<g>
</g>
<g>
</g>
<g>
</g>
<g>
</g>
<g>
</g>
<g>
</g>
<g>
</g>
<g>
</g>
<g>
</g>
<g>
</g>
<g>
</g>
<g>
</g>
<g>
</g>
<g>
</g>
<g>
</g>
</svg>
