<?xml version="1.0" encoding="iso-8859-1"?>
<!-- Generator: Adobe Illustrator 19.0.0, SVG Export Plug-In . SVG Version: 6.00 Build 0)  -->
<svg version="1.1" id="Capa_1" xmlns="http://www.w3.org/2000/svg" xmlns:xlink="http://www.w3.org/1999/xlink" x="0px" y="0px"
	 viewBox="0 0 512 512" style="enable-background:new 0 0 512 512;" xml:space="preserve">
<g>
	<g>
		<path d="M110.938,238.933c-0.001,0-0.003,0-0.004,0c-4.712-0.001-8.532,3.817-8.533,8.529c0,0.002,0,0.003,0,0.004V435.2
			c0,4.713,3.82,8.533,8.533,8.533s8.533-3.82,8.533-8.533V247.467C119.468,242.755,115.649,238.935,110.938,238.933z"/>
	</g>
</g>
<g>
	<g>
		<path d="M401.067,238.933c-4.713,0-8.533,3.82-8.533,8.533V435.2c0,4.713,3.821,8.533,8.533,8.533s8.533-3.82,8.533-8.533V247.467
			C409.6,242.754,405.78,238.933,401.067,238.933z"/>
	</g>
</g>
<g>
	<g>
		<path d="M435.199,145.068c-2.529,0-4.928,1.123-6.549,3.065l-1.983,2.376v-31.043C426.624,94.509,408.606,73.213,384,69.037V51.2
			c9.421-0.011,17.056-7.646,17.067-17.067V17.067C401.056,7.645,393.421,0.011,384,0h-51.2
			c-9.421,0.011-17.056,7.645-17.067,17.067v17.067c0.011,9.421,7.646,17.056,17.067,17.067v17.837
			c-22.312,3.801-39.488,21.788-42.256,44.251c-5.698-1.545-11.574-2.336-17.477-2.355c-11.992,0.038-23.763,3.228-34.133,9.25V76.8
			c-0.028-23.553-19.114-42.639-42.667-42.667c-9.262,0.032-18.256,3.107-25.6,8.752v-0.218C170.667,19.103,151.564,0,128,0
			S85.333,19.103,85.333,42.667v107.843l-1.983-2.376c-3.02-3.618-8.401-4.103-12.018-1.083c-1.942,1.621-3.065,4.02-3.065,6.549
			v286.308c0.006,9.979,3.503,19.641,9.883,27.313l19.408,23.287c11.336,13.637,28.158,21.515,45.892,21.492h225.1
			c17.733,0.023,34.555-7.855,45.892-21.492l19.408-23.287c6.381-7.672,9.877-17.334,9.883-27.313V153.6
			C443.733,148.888,439.912,145.068,435.199,145.068z M332.8,17.067l51.2,0.025v17.042h-51.2V17.067z M366.933,51.2v17.067h-17.067
			V51.2H366.933z M307.2,119.467c0.02-18.843,15.29-34.113,34.133-34.133h34.133c18.843,0.02,34.113,15.29,34.133,34.133v51.488
			l-9.66,11.573c-9.459-8.82-24.277-8.302-33.097,1.156c-1.111,1.191-2.094,2.495-2.935,3.891c-2.018,3.042-6.12,3.872-9.162,1.854
			c-0.736-0.488-1.366-1.119-1.854-1.854c-2.709-4.403-6.805-7.781-11.644-9.601c-0.299-23.91-13.26-45.866-34.048-57.681V119.467z
			 M236.525,143.408c15.393-15.383,38.742-19.543,58.5-10.421c17.54,8.201,28.862,25.694,29.16,45.054
			c-4.767,1.834-8.8,5.184-11.477,9.533c-2.018,3.042-6.12,3.872-9.162,1.854c-0.736-0.488-1.366-1.119-1.854-1.854
			c-6.673-11.096-21.077-14.682-32.174-8.01c-3.284,1.975-6.035,4.725-8.01,8.01c-2.018,3.042-6.12,3.872-9.162,1.854
			c-0.736-0.488-1.366-1.119-1.854-1.854c-5.76-9.92-17.987-14.025-28.567-9.591C222.187,165.015,227.412,152.64,236.525,143.408z
			 M170.667,76.8c0.015-14.132,11.468-25.585,25.6-25.6c14.132,0.015,25.585,11.468,25.6,25.6v57.427
			c-13.677,15.232-19.601,35.902-16.067,56.066c-2.52,0.5-5.093-0.574-6.508-2.719c-5.773-9.94-18.036-14.038-28.625-9.566V76.8z
			 M102.4,42.667c0.015-14.132,11.468-25.585,25.6-25.6c14.132,0.015,25.585,11.468,25.6,25.6v147.865
			c-2.227,0.046-4.316-1.075-5.508-2.956c-6.623-11.068-20.965-14.672-32.034-8.048c-1.434,0.858-2.771,1.867-3.989,3.01
			l-9.669-11.582V42.667z M426.667,439.908c-0.005,5.987-2.104,11.785-5.933,16.388l-19.408,23.287
			c-8.096,9.74-20.11,15.367-32.775,15.35h-225.1c-12.665,0.017-24.679-5.61-32.775-15.35l-19.408-23.287
			c-3.829-4.603-5.928-10.4-5.933-16.388V177.138l20.675,24.767c0.339,0.325,0.705,0.619,1.095,0.88
			c0.332,0.361,0.696,0.692,1.089,0.987c0.079,0.047,0.169,0.043,0.248,0.087c0.567,0.275,1.164,0.484,1.779,0.623
			c0.444,0.17,0.901,0.303,1.367,0.397c0.591,0.029,1.184-0.005,1.768-0.101c0.489-0.007,0.977-0.057,1.457-0.148
			c0.495-0.179,0.973-0.404,1.427-0.672c0.547-0.225,1.068-0.508,1.554-0.843c0.072-0.057,0.162-0.068,0.233-0.127
			c0.328-0.342,0.625-0.712,0.888-1.106c0.358-0.329,0.686-0.689,0.979-1.077l2.6-4.379c2.018-3.042,6.12-3.872,9.162-1.854
			c0.736,0.488,1.366,1.119,1.855,1.854c6.53,11.015,20.753,14.652,31.768,8.122c0.318-0.189,0.632-0.385,0.94-0.588
			c0.799-0.419,1.525-0.964,2.152-1.613c2.097-1.657,3.897-3.66,5.323-5.921c2.018-3.042,6.12-3.872,9.162-1.854
			c0.736,0.488,1.366,1.119,1.854,1.854c6.673,11.096,21.078,14.682,32.174,8.01c3.284-1.975,6.035-4.725,8.01-8.01
			c2.018-3.042,6.12-3.872,9.162-1.854c0.736,0.488,1.366,1.119,1.854,1.854c6.673,11.096,21.078,14.682,32.174,8.01
			c3.284-1.975,6.035-4.725,8.01-8.01c2.018-3.042,6.12-3.872,9.162-1.854c0.736,0.488,1.366,1.119,1.854,1.854
			c6.673,11.096,21.078,14.682,32.174,8.01c3.284-1.975,6.035-4.725,8.01-8.01c2.018-3.042,6.12-3.872,9.162-1.854
			c0.736,0.488,1.366,1.119,1.854,1.854c6.674,11.097,21.079,14.682,32.176,8.009c3.292-1.98,6.048-4.739,8.024-8.034
			c1.833-3.032,5.776-4.004,8.808-2.171c0.877,0.53,1.615,1.263,2.15,2.137l2.642,4.437c0.667,0.689,1.29,1.418,1.867,2.183
			c0.071,0.06,0.161,0.07,0.233,0.127c0.486,0.336,1.008,0.618,1.554,0.843c0.84,0.594,1.857,0.883,2.884,0.82
			c1.048,0.262,2.154,0.158,3.134-0.297c0.615-0.139,1.212-0.348,1.779-0.623c0.079-0.044,0.169-0.04,0.248-0.087
			c0.69-0.665,1.419-1.288,2.183-1.867l20.675-24.767V439.908z"/>
	</g>
</g>
<g>
	<g>
		<path d="M133.923,62.234c-3.319-3.259-8.637-3.259-11.956,0l-8.533,8.533c-3.332,3.333-3.331,8.736,0.002,12.068
			c1.6,1.599,3.769,2.498,6.031,2.498c2.264,0.003,4.435-0.897,6.033-2.5l8.533-8.533C137.335,70.937,137.286,65.535,133.923,62.234
			z"/>
	</g>
</g>
<g>
	<g>
		<path d="M133.923,96.367c-3.319-3.259-8.637-3.259-11.956,0l-8.533,8.533c-3.332,3.333-3.331,8.736,0.002,12.068
			c1.6,1.599,3.769,2.498,6.031,2.498c2.264,0.003,4.435-0.897,6.033-2.5l8.533-8.533
			C137.335,105.071,137.286,99.669,133.923,96.367z"/>
	</g>
</g>
<g>
	<g>
		<path d="M133.924,130.5c-3.319-3.26-8.638-3.26-11.957,0l-8.533,8.533c-3.332,3.333-3.331,8.736,0.002,12.068
			c1.6,1.599,3.769,2.498,6.031,2.498c2.264,0.003,4.435-0.897,6.033-2.5l8.533-8.533
			C137.335,139.204,137.286,133.802,133.924,130.5z"/>
	</g>
</g>
<g>
	<g>
		<path d="M202.191,96.367c-3.319-3.26-8.638-3.26-11.957,0L181.7,104.9c-3.332,3.333-3.331,8.736,0.002,12.068
			c1.6,1.599,3.769,2.498,6.031,2.498c2.264,0.003,4.435-0.897,6.033-2.5l8.533-8.533
			C205.602,105.071,205.553,99.669,202.191,96.367z"/>
	</g>
</g>
<g>
	<g>
		<path d="M202.191,130.5c-3.319-3.26-8.638-3.26-11.958,0l-8.533,8.533c-3.332,3.333-3.331,8.736,0.002,12.068
			c1.6,1.599,3.769,2.498,6.031,2.498c2.264,0.003,4.435-0.897,6.033-2.5l8.533-8.533
			C205.602,139.205,205.553,133.802,202.191,130.5z"/>
	</g>
</g>
<g>
</g>
<g>
</g>
<g>
</g>
<g>
</g>
<g>
</g>
<g>
</g>
<g>
</g>
<g>
</g>
<g>
</g>
<g>
</g>
<g>
</g>
<g>
</g>
<g>
</g>
<g>
</g>
<g>
</g>
</svg>
