<?xml version="1.0" encoding="iso-8859-1"?>
<!-- Generator: Adobe Illustrator 16.0.0, SVG Export Plug-In . SVG Version: 6.00 Build 0)  -->
<!DOCTYPE svg PUBLIC "-//W3C//DTD SVG 1.1//EN" "http://www.w3.org/Graphics/SVG/1.1/DTD/svg11.dtd">
<svg version="1.1" id="Capa_1" xmlns="http://www.w3.org/2000/svg" xmlns:xlink="http://www.w3.org/1999/xlink" x="0px" y="0px"
	 width="635.808px" height="635.808px" viewBox="0 0 635.808 635.808" style="enable-background:new 0 0 635.808 635.808;"
	 xml:space="preserve">
<g>
	<path d="M565.289,466.968l-79.137-144.737c-5.99-10.858-15.93-17.738-26.451-19.571c-4.123-1.376-8.422-2.129-12.992-2.129H326.513
		l-2.449-36.846h97.09c12.836,0,23.223-11.611,23.223-25.818c0-14.232-10.387-25.833-23.223-25.833H320.718l-2.908-45.696
		c-1.634-24.953-22.375-43.994-47.033-43.994c-1.036,0-2.071,0.029-3.107,0.107l-9.758,0.607
		c-25.989,1.683-45.706,24.15-44.033,50.14l10.853,165.525c1.653,24.935,22.405,44.013,47.033,44.013c0.579,0,1.157,0,1.731-0.02
		h1.376c0.924,0.156,1.843,0.156,2.747,0.156h164.625l63.734,116.498c7.021,12.836,19.867,20.344,32.566,20.344
		c5.193,0,10.24-1.225,14.947-3.83C569.859,506.878,575.062,485.007,565.289,466.968z"/>
	<path d="M263.451,109.538c30.243,0,54.768-24.535,54.768-54.769C318.219,24.525,293.694,0,263.451,0
		c-30.253,0-54.768,24.525-54.768,54.769S233.188,109.538,263.451,109.538z"/>
	<path d="M466.429,496.541c0,0-12.895-10.045-22.93,5.242s-24.836,53.971-79.273,81.666c-33.451,17.193-77.874,32.48-139.483,13.867
		c-61.619-18.621-138.034-89.328-127.999-188.646c6.686-52.541,24.36-94.104,79.765-137.081
		c11.47-10.508,10.984-17.655,5.723-23.869c-5.246-6.214-13.371-7.658-21.01-2.869c-7.659,4.772-12.428,8.598-12.428,8.598
		s-91.221,64.936-82.629,182.908c8.592,117.986,101.251,185.797,181.513,197.262c80.255,11.455,169.069-21.637,218.751-109.188
		C471.205,513.736,476.457,506.091,466.429,496.541z"/>
</g>
</svg>
