<?xml version="1.0" encoding="iso-8859-1"?>
<!-- Generator: Adobe Illustrator 19.0.0, SVG Export Plug-In . SVG Version: 6.00 Build 0)  -->
<svg version="1.1" id="Layer_1" xmlns="http://www.w3.org/2000/svg" xmlns:xlink="http://www.w3.org/1999/xlink" x="0px" y="0px"
	 viewBox="0 0 407.004 407.004" style="enable-background:new 0 0 407.004 407.004;" xml:space="preserve">
<g>
	<g>
		<g>
			<path d="M108.215,281.122c-11.579,0-21,9.421-21,21c0,11.579,9.421,21,21,21c11.579,0,21-9.421,21-21
				C129.215,290.543,119.794,281.122,108.215,281.122z M108.215,308.122c-3.309,0-6-2.692-6-6c0-3.308,2.691-6,6-6
				c3.309,0,6,2.692,6,6C114.215,305.43,111.523,308.122,108.215,308.122z"/>
			<path d="M298.789,281.122c-11.579,0-21,9.421-21,21c0,11.579,9.421,21,21,21c11.579,0,21-9.421,21-21
				C319.789,290.543,310.368,281.122,298.789,281.122z M298.789,308.122c-3.309,0-6-2.692-6-6c0-3.308,2.691-6,6-6
				c3.309,0,6,2.692,6,6C304.789,305.43,302.098,308.122,298.789,308.122z"/>
			<path d="M304.806,99h-47.581l-14.272-24.1c-1.35-2.28-3.804-3.678-6.453-3.678h-65.997c-2.65,0-5.104,1.398-6.453,3.678
				L149.779,99h-47.581c-22.642,0-41.063,18.421-41.063,41.063v158.761c0,19,10.996,35.471,26.954,43.41l-25.587,54.058
				c-1.771,3.744-0.173,8.216,3.57,9.988c1.037,0.49,2.129,0.723,3.204,0.723c2.809,0,5.502-1.586,6.784-4.293l26.48-55.944
				c1.979,0.29,3.997,0.451,6.045,0.494l-18.636,49.604c-1.457,3.878,0.505,8.202,4.383,9.659c0.869,0.326,1.76,0.481,2.637,0.481
				c3.034,0,5.892-1.856,7.021-4.864l8.992-23.935h181.037l8.992,23.935c1.13,3.009,3.986,4.864,7.021,4.864
				c0.877,0,1.768-0.155,2.637-0.481c3.878-1.457,5.84-5.781,4.383-9.659l-18.635-49.604c2.048-0.042,4.066-0.204,6.045-0.494
				l26.481,55.944c1.282,2.708,3.976,4.293,6.784,4.293c1.075,0,2.168-0.232,3.204-0.723c3.744-1.772,5.342-6.244,3.57-9.988
				l-25.588-54.057c15.958-7.938,26.954-24.41,26.954-43.41V140.063C345.868,117.421,327.447,99,304.806,99z M174.778,86.222h57.446
				L239.792,99h-72.581L174.778,86.222z M118.618,363.203l5.981-15.919h157.805l5.981,15.919H118.618z M330.869,298.824
				L330.869,298.824c-0.001,18.45-15.011,33.46-33.461,33.46H109.596c-18.45,0-33.46-15.01-33.46-33.46V140.063
				c0-14.371,11.691-26.063,26.063-26.063h202.607c14.371,0,26.063,11.692,26.063,26.063V298.824z"/>
			<path d="M304.806,121H102.198c-10.511,0-19.063,8.551-19.063,19.063V245.5c0,14.59,11.87,26.46,26.46,26.46h187.813
				c14.59,0,26.46-11.87,26.46-26.46V140.063C323.868,129.551,315.316,121,304.806,121z M308.869,245.5L308.869,245.5
				c-0.001,6.319-5.142,11.46-11.461,11.46H109.596c-6.319,0-11.46-5.141-11.46-11.46V171h179.032c4.143,0,7.5-3.358,7.5-7.5
				c0-4.142-3.357-7.5-7.5-7.5H98.136v-15.938c0-2.24,1.822-4.063,4.063-4.063h202.607c2.24,0,4.063,1.823,4.063,4.063V245.5z"/>
			<path d="M203.502,0c-103.112,0-187,83.888-187,187v212.5c0,4.142,3.357,7.5,7.5,7.5c4.143,0,7.5-3.358,7.5-7.5V187
				c0-94.841,77.159-172,172-172s172,77.159,172,172v212.5c0,4.142,3.357,7.5,7.5,7.5s7.5-3.358,7.5-7.5V187
				C390.502,83.888,306.614,0,203.502,0z"/>
			<path d="M303.225,160.629c-0.089-0.211-0.052-0.121-0.008-0.016c-1.243-2.934-4.253-4.82-7.443-4.585
				c-3.146,0.231-5.847,2.435-6.697,5.476c-1.805,6.461,5.562,11.924,11.233,8.333c3.043-1.928,4.289-5.847,2.925-9.18
				C303.278,160.76,303.313,160.842,303.225,160.629z"/>
		</g>
	</g>
</g>
<g>
</g>
<g>
</g>
<g>
</g>
<g>
</g>
<g>
</g>
<g>
</g>
<g>
</g>
<g>
</g>
<g>
</g>
<g>
</g>
<g>
</g>
<g>
</g>
<g>
</g>
<g>
</g>
<g>
</g>
</svg>
