<?xml version="1.0" encoding="iso-8859-1"?>
<!-- Generator: Adobe Illustrator 19.0.0, SVG Export Plug-In . SVG Version: 6.00 Build 0)  -->
<svg version="1.1" id="Layer_1" xmlns="http://www.w3.org/2000/svg" xmlns:xlink="http://www.w3.org/1999/xlink" x="0px" y="0px"
	 viewBox="0 0 512 512" style="enable-background:new 0 0 512 512;" xml:space="preserve">
<g transform="translate(1 1)">
	<g>
		<g>
			<path d="M475.69,12.241h-35.31h-18.538h-52.083h-17.655h-52.966h-17.655h-52.966h-17.655h-52.966h-17.655H87.276H69.621H33.428
				C14.007,12.241-1,27.248-1,46.669v71.503c0,12.359,5.297,24.717,14.124,32.662c3.834,3.068,8.003,5.634,12.359,7.557v48.057
				v282.483c0,5.297,3.531,8.828,8.828,8.828h44.138h123.586H475.69c5.297,0,8.828-3.531,8.828-8.828V206.45c0,0,0-0.001,0-0.001
				v-48.035C500,150.975,511,134.52,511,116.407V46.669C511,27.248,495.993,12.241,475.69,12.241z M369.759,29.897h52.083v88.276
				c0,1.773,0.141,3.544,0.385,5.304c-2.349,12.324-12.803,21.179-25.985,21.179c-15.007,0-26.483-11.476-26.483-26.483V29.897z
				 M299.138,29.897h52.966v88.276c0,15.007-11.476,26.483-26.483,26.483s-26.483-11.476-26.483-26.483V29.897z M228.517,29.897
				h52.966v88.276c0,15.007-11.476,26.483-26.483,26.483s-26.483-11.476-26.483-26.483V29.897z M157.897,29.897h52.966v88.276
				c0,15.007-11.476,26.483-26.483,26.483s-26.483-11.476-26.483-26.483V29.897z M87.276,29.897h52.966v88.276
				c0,15.007-11.476,26.483-26.483,26.483s-26.483-11.476-26.483-26.483v-1.766V29.897z M16.655,118.172V46.669
				c0-9.71,7.062-16.772,16.772-16.772h36.193v86.51c0,13.202-9.256,24.859-21.278,27.767c-1.308,0.244-2.654,0.398-4.033,0.453
				c-6.672-0.235-13.896-2.104-18.827-7.034C20.186,133.179,16.655,125.234,16.655,118.172z M47.552,162.31
				c3.494-0.419,6.877-1.284,10.097-2.529c8.288-2.927,15.573-8.225,20.691-14.99c7.988,10.699,20.773,17.519,35.419,17.519
				c14.581,0,27.315-6.762,35.31-17.38c7.995,10.618,20.729,17.38,35.31,17.38c14.581,0,27.315-6.762,35.31-17.38
				c7.995,10.618,20.729,17.38,35.31,17.38s27.315-6.762,35.31-17.38c7.995,10.618,20.729,17.38,35.31,17.38
				c14.581,0,27.315-6.762,35.31-17.38c7.995,10.618,20.729,17.38,35.31,17.38c14.539,0,27.24-6.724,35.239-17.289
				c1.641,2.115,3.436,4.075,5.367,5.813c1.414,1.132,2.879,2.187,4.376,3.175c6.247,4.432,13.713,7.339,21.605,8.089
				c0.065,0.007,0.13,0.012,0.195,0.018c0.54,0.049,1.079,0.096,1.623,0.125c0.738,0.042,1.476,0.069,2.214,0.069v35.31H43.138
				v-35.31C44.903,162.31,45.786,162.31,47.552,162.31z M87.276,480.103V250.586h105.931v123.586h-17.655
				c-5.297,0-8.828,3.531-8.828,8.828c0,5.297,3.531,8.828,8.828,8.828h17.655v88.276H87.276z M466.862,480.103h-256V241.759
				c0-5.297-3.531-8.828-8.828-8.828H78.448c-5.297,0-8.828,3.531-8.828,8.828v238.345H43.138V215.276h423.724V480.103z
				 M493.345,116.407c0,13.043-8.003,23.414-18.791,27.066c-0.504,0.046-1.008,0.132-1.513,0.3c-1.3,0.65-3.077,0.82-4.629,0.865
				c-6.776-0.177-14.181-2.021-19.205-7.045c-5.297-4.414-8.828-12.359-8.828-19.421V29.897h36.193
				c9.71,0,16.772,7.945,16.772,16.772V116.407z"/>
			<path d="M246.172,444.793h44.138h105.931h44.138c5.297,0,8.828-3.531,8.828-8.828V241.759c0-5.297-3.531-8.828-8.828-8.828
				h-52.966h-88.276h-52.966c-5.297,0-8.828,3.531-8.828,8.828v194.207C237.345,441.262,240.876,444.793,246.172,444.793z
				 M369.759,400.655c5.297,0,8.828-3.531,8.828-8.828c0-5.297-3.531-8.828-8.828-8.828h-52.966c-5.297,0-8.828,3.531-8.828,8.828
				c0,5.297,3.531,8.828,8.828,8.828h17.655v26.483h-35.56c-1.741-31.438-12.718-57.69-28.882-70.621
				c20.829-17.496,36.146-57.016,37.803-105.931h70.924c1.57,48.915,16.149,88.435,37.811,105.931
				c-16.163,12.931-27.141,39.183-28.882,70.621h-35.56v-26.483H369.759z M431.552,427.138h-26.483
				c2.648-30.014,14.124-52.083,26.483-59.145V427.138z M431.552,250.586v94.455c-17.655-9.71-33.545-45.021-35.31-94.455H431.552z
				 M255,250.586h35.31c-1.766,49.435-18.538,84.745-35.31,94.455V250.586z M255,367.993c13.241,7.062,24.717,29.131,26.483,59.145
				H255V367.993z"/>
			<path d="M175.552,330.034v-52.966c0-5.297-3.531-8.828-8.828-8.828h-52.966c-5.297,0-8.828,3.531-8.828,8.828v52.966
				c0,5.297,3.531,8.828,8.828,8.828h52.966C172.021,338.862,175.552,335.331,175.552,330.034z M157.897,321.207h-35.31v-35.31
				h35.31V321.207z"/>
		</g>
	</g>
</g>
<g>
</g>
<g>
</g>
<g>
</g>
<g>
</g>
<g>
</g>
<g>
</g>
<g>
</g>
<g>
</g>
<g>
</g>
<g>
</g>
<g>
</g>
<g>
</g>
<g>
</g>
<g>
</g>
<g>
</g>
</svg>
