<?xml version="1.0" encoding="iso-8859-1"?>
<!-- Generator: Adobe Illustrator 19.0.0, SVG Export Plug-In . SVG Version: 6.00 Build 0)  -->
<svg version="1.1" id="Capa_1" xmlns="http://www.w3.org/2000/svg" xmlns:xlink="http://www.w3.org/1999/xlink" x="0px" y="0px"
	 viewBox="0 0 512 512" style="enable-background:new 0 0 512 512;" xml:space="preserve">
<g>
	<g>
		<path d="M416,299c-5.51,0-10,4.49-10,10s4.49,10,10,10s10-4.49,10-10S421.51,299,416,299z"/>
	</g>
</g>
<g>
	<g>
		<path d="M96,299c-5.51,0-10,4.49-10,10s4.49,10,10,10s10-4.49,10-10S101.51,299,96,299z"/>
	</g>
</g>
<g>
	<g>
		<path d="M303.069,406.1c-1.859-1.87-4.439-2.93-7.069-2.93s-5.21,1.06-7.07,2.93c-1.86,1.86-2.93,4.431-2.93,7.07
			c0,2.63,1.069,5.21,2.93,7.07c1.86,1.86,4.44,2.93,7.07,2.93s5.21-1.07,7.069-2.93c1.86-1.86,2.931-4.44,2.931-7.07
			C306,410.53,304.93,407.96,303.069,406.1z"/>
	</g>
</g>
<g>
	<g>
		<path d="M223.069,406.1c-1.859-1.87-4.439-2.93-7.069-2.93s-5.21,1.06-7.07,2.93c-1.86,1.86-2.93,4.431-2.93,7.07
			c0,2.63,1.069,5.21,2.93,7.07c1.86,1.86,4.44,2.93,7.07,2.93s5.21-1.07,7.069-2.93c1.86-1.86,2.931-4.44,2.931-7.07
			C226,410.53,224.93,407.96,223.069,406.1z"/>
	</g>
</g>
<g>
	<g>
		<path d="M158.211,88.789C152.543,83.121,145.01,80,137,80c-2.669,0-5.18-1.041-7.068-2.931C128.041,75.179,127,72.668,127,70
			c0-5.514,4.486-10,10-10c2.668,0,5.178,1.041,7.068,2.932c3.906,3.904,10.236,3.904,14.143,0c3.905-3.905,3.905-10.237,0-14.143
			C152.543,43.121,145.01,40,137,40c-16.542,0-30,13.458-30,30c0,8.009,3.121,15.542,8.788,21.211
			C121.456,96.879,128.989,100,137,100c2.668,0,5.178,1.041,7.068,2.932S147,107.332,147,110c0,5.514-4.486,10-10,10
			c-2.669,0-5.18-1.041-7.069-2.932c-3.906-3.904-10.236-3.904-14.143,0c-3.905,3.905-3.905,10.237,0,14.143
			C121.456,136.879,128.989,140,137,140c16.542,0,30-13.458,30-30C167,101.99,163.879,94.457,158.211,88.789z"/>
	</g>
</g>
<g>
	<g>
		<path d="M237,40c-5.522,0-10,4.478-10,10v30h-20V50c0-5.522-4.478-10-10-10c-5.522,0-10,4.478-10,10v80c0,5.522,4.478,10,10,10
			c5.522,0,10-4.478,10-10v-30h20v30c0,5.522,4.478,10,10,10c5.522,0,10-4.478,10-10V50C247,44.478,242.522,40,237,40z"/>
	</g>
</g>
<g>
	<g>
		<path d="M297,40c-16.542,0-30,13.458-30,30v40c0,16.542,13.458,30,30,30s30-13.458,30-30V70C327,53.458,313.542,40,297,40z
			 M307,110c0,5.514-4.486,10-10,10c-5.514,0-10-4.486-10-10V70c0-5.514,4.486-10,10-10c5.514,0,10,4.486,10,10V110z"/>
	</g>
</g>
<g>
	<g>
		<path d="M377,40h-23c-5.522,0-10,4.478-10,10c0,2.796,1.15,5.321,3,7.135V130c0,5.522,4.478,10,10,10c5.522,0,10-4.478,10-10v-30
			h10c16.542,0,30-13.458,30-30S393.542,40,377,40z M377,80h-10V60h10c5.514,0,10,4.486,10,10S382.514,80,377,80z"/>
	</g>
</g>
<g>
	<g>
		<path d="M502.004,236.336l-82.719-62.109C435.155,165.838,446,149.166,446,130V50c0-27.57-22.43-50-50-50H116
			C88.43,0,66,22.43,66,50v80c0,19.166,10.845,35.838,26.715,44.227L9.996,236.336C7.48,238.225,6,241.188,6,244.333
			c0,24.146,17.205,44.348,40,48.994V502c0,5.522,4.478,10,10,10h400c5.522,0,10-4.478,10-10V293.327
			c22.795-4.646,40-24.847,40-48.994C506,241.188,504.52,238.225,502.004,236.336z M466.027,234.333h-45.792L367.607,180h26.056
			L466.027,234.333z M324.278,254.333c-4.128,11.639-15.242,20-28.278,20s-24.152-8.361-28.28-20H324.278z M266,234.333V180h26.807
			l27.045,54.333H266z M315.148,180h24.617l52.627,54.333h-50.2L315.148,180z M86,130V50c0-16.542,13.458-30,30-30h280
			c16.542,0,30,13.458,30,30v80c0,16.542-13.458,30-30,30H116C99.458,160,86,146.542,86,130z M192.148,234.333L219.193,180H246
			v54.333H192.148z M244.28,254.333c-4.128,11.639-15.243,20-28.28,20c-13.035,0-24.142-8.362-28.269-20H244.28z M169.807,234.333
			h-50.2L172.235,180h24.617L169.807,234.333z M118.336,180h26.056l-52.628,54.333H45.973L118.336,180z M27.715,254.333H84.28
			c-4.128,11.639-15.243,20-28.28,20S31.843,265.973,27.715,254.333z M126,492h-20V349c0-5.51-4.49-10-10-10s-10,4.49-10,10v143H66
			V293.308c12.193-2.487,22.793-9.406,30.008-19.018c7.213,9.609,17.804,16.529,29.992,19.017V492z M107.731,254.333h56.549
			c-4.128,11.639-15.243,20-28.28,20C122.965,274.333,111.858,265.971,107.731,254.333z M246,492H146V334.333h100V492z M366,492H266
			V334.333h100V492z M366,314.333H146v-21.026c12.19-2.489,22.783-9.414,29.998-19.026c9.128,12.164,23.657,20.053,40.002,20.053
			c16.34,0,30.866-7.884,39.993-20.043c9.129,12.161,23.664,20.043,40.007,20.043c16.344,0,30.881-7.884,40.01-20.047
			c7.212,9.611,17.802,16.533,29.99,19.021V314.333z M347.72,254.333h56.549c-4.127,11.638-15.234,20-28.269,20
			C362.964,274.333,351.848,265.972,347.72,254.333z M446,492h-20V349c0-5.51-4.49-10-10-10s-10,4.49-10,10v143h-20V293.307
			c12.188-2.487,22.781-9.406,29.994-19.015c7.215,9.611,17.815,16.529,30.006,19.015V492z M456,274.333
			c-13.036,0-24.152-8.361-28.28-20h56.565C480.157,265.973,469.037,274.333,456,274.333z"/>
	</g>
</g>
<g>
</g>
<g>
</g>
<g>
</g>
<g>
</g>
<g>
</g>
<g>
</g>
<g>
</g>
<g>
</g>
<g>
</g>
<g>
</g>
<g>
</g>
<g>
</g>
<g>
</g>
<g>
</g>
<g>
</g>
</svg>
