<?xml version="1.0" encoding="iso-8859-1"?>
<!-- Generator: Adobe Illustrator 19.0.0, SVG Export Plug-In . SVG Version: 6.00 Build 0)  -->
<svg version="1.1" id="Capa_1" xmlns="http://www.w3.org/2000/svg" xmlns:xlink="http://www.w3.org/1999/xlink" x="0px" y="0px"
	 viewBox="0 0 511.36 511.36" style="enable-background:new 0 0 511.36 511.36;" xml:space="preserve">
<g>
	<g>
		<polygon points="105.68,207.32 105.68,222.36 135.2,222.36 135.2,304.76 151.68,304.76 151.68,222.36 181.2,222.36 181.2,207.32 
					"/>
	</g>
</g>
<g>
	<g>
		<path d="M238.32,207.32H220.8l-42.96,97.44h17.6l9.76-22.16H254l9.76,22.16h17.52L238.32,207.32z M211.84,267.4l17.76-40l17.68,40
			H211.84z"/>
	</g>
</g>
<g>
	<g>
		<polygon points="339.52,254.68 370.64,207.32 350.32,207.32 328.56,240.2 327.84,240.2 306.08,207.32 285.76,207.32 316.8,254.68 
			283.36,304.76 303.84,304.76 327.84,268.04 328.56,268.04 352.48,304.76 373.04,304.76 		"/>
	</g>
</g>
<g>
	<g>
		<rect x="388.64" y="207.32" width="16.48" height="97.44"/>
	</g>
</g>
<g>
	<g>
		<rect x="47.36" y="68.12" width="16" height="16"/>
	</g>
</g>
<g>
	<g>
		<rect x="63.36" y="84.12" width="16" height="16"/>
	</g>
</g>
<g>
	<g>
		<rect x="31.36" y="84.12" width="16" height="16"/>
	</g>
</g>
<g>
	<g>
		<rect x="79.36" y="68.12" width="16" height="16"/>
	</g>
</g>
<g>
	<g>
		<rect x="95.36" y="84.12" width="16" height="16"/>
	</g>
</g>
<g>
	<g>
		<rect x="111.36" y="68.12" width="16" height="16"/>
	</g>
</g>
<g>
	<g>
		<rect x="127.36" y="84.12" width="16" height="16"/>
	</g>
</g>
<g>
	<g>
		<rect x="143.36" y="68.12" width="16" height="16"/>
	</g>
</g>
<g>
	<g>
		<rect x="159.36" y="84.12" width="16" height="16"/>
	</g>
</g>
<g>
	<g>
		<rect x="175.36" y="68.12" width="16" height="16"/>
	</g>
</g>
<g>
	<g>
		<rect x="191.36" y="84.12" width="16" height="16"/>
	</g>
</g>
<g>
	<g>
		<rect x="207.36" y="68.12" width="16" height="16"/>
	</g>
</g>
<g>
	<g>
		<rect x="223.36" y="84.12" width="16" height="16"/>
	</g>
</g>
<g>
	<g>
		<rect x="239.36" y="68.12" width="16" height="16"/>
	</g>
</g>
<g>
	<g>
		<rect x="255.36" y="84.12" width="16" height="16"/>
	</g>
</g>
<g>
	<g>
		<rect x="271.36" y="68.12" width="16" height="16"/>
	</g>
</g>
<g>
	<g>
		<rect x="287.36" y="84.12" width="16" height="16"/>
	</g>
</g>
<g>
	<g>
		<rect x="303.36" y="68.12" width="16" height="16"/>
	</g>
</g>
<g>
	<g>
		<rect x="319.36" y="84.12" width="16" height="16"/>
	</g>
</g>
<g>
	<g>
		<rect x="335.36" y="68.12" width="16" height="16"/>
	</g>
</g>
<g>
	<g>
		<rect x="351.36" y="84.12" width="16" height="16"/>
	</g>
</g>
<g>
	<g>
		<rect x="367.36" y="68.12" width="16" height="16"/>
	</g>
</g>
<g>
	<g>
		<rect x="383.36" y="84.12" width="16" height="16"/>
	</g>
</g>
<g>
	<g>
		<rect x="399.36" y="68.12" width="16" height="16"/>
	</g>
</g>
<g>
	<g>
		<rect x="415.36" y="84.12" width="16" height="16"/>
	</g>
</g>
<g>
	<g>
		<rect x="431.36" y="68.12" width="16" height="16"/>
	</g>
</g>
<g>
	<g>
		<rect x="447.36" y="84.12" width="16" height="16"/>
	</g>
</g>
<g>
	<g>
		<rect x="463.36" y="68.12" width="16" height="16"/>
	</g>
</g>
<g>
	<g>
		<path d="M503.36,36.04H8c-4.418,0-8,3.582-8,8v423.28c0,4.418,3.582,8,8,8h495.36c4.418,0,8-3.582,8-8V44.04
			C511.36,39.622,507.778,36.04,503.36,36.04z M495.36,459.4L16,459.32v-63.28c156.48,0,430.56,0,479.36,0V459.4z M495.36,380.04H16
			V132.12c156.56-0.08,430.56-0.08,479.36-0.08V380.04z M495.36,116.04H16v-64h479.36V116.04z"/>
	</g>
</g>
<g>
	<g>
		<rect x="47.36" y="412.04" width="16" height="16"/>
	</g>
</g>
<g>
	<g>
		<rect x="63.36" y="428.04" width="16" height="16"/>
	</g>
</g>
<g>
	<g>
		<rect x="31.36" y="428.04" width="16" height="16"/>
	</g>
</g>
<g>
	<g>
		<rect x="79.36" y="412.04" width="16" height="16"/>
	</g>
</g>
<g>
	<g>
		<rect x="95.36" y="428.04" width="16" height="16"/>
	</g>
</g>
<g>
	<g>
		<rect x="111.36" y="412.04" width="16" height="16"/>
	</g>
</g>
<g>
	<g>
		<rect x="127.36" y="428.04" width="16" height="16"/>
	</g>
</g>
<g>
	<g>
		<rect x="143.36" y="412.04" width="16" height="16"/>
	</g>
</g>
<g>
	<g>
		<rect x="159.36" y="428.04" width="16" height="16"/>
	</g>
</g>
<g>
	<g>
		<rect x="175.36" y="412.04" width="16" height="16"/>
	</g>
</g>
<g>
	<g>
		<rect x="191.36" y="428.04" width="16" height="16"/>
	</g>
</g>
<g>
	<g>
		<rect x="207.36" y="412.04" width="16" height="16"/>
	</g>
</g>
<g>
	<g>
		<rect x="223.36" y="428.04" width="16" height="16"/>
	</g>
</g>
<g>
	<g>
		<rect x="239.36" y="412.04" width="16" height="16"/>
	</g>
</g>
<g>
	<g>
		<rect x="255.36" y="428.04" width="16" height="16"/>
	</g>
</g>
<g>
	<g>
		<rect x="271.36" y="412.04" width="16" height="16"/>
	</g>
</g>
<g>
	<g>
		<rect x="287.36" y="428.04" width="16" height="16"/>
	</g>
</g>
<g>
	<g>
		<rect x="303.36" y="412.04" width="16" height="16"/>
	</g>
</g>
<g>
	<g>
		<rect x="319.36" y="428.04" width="16" height="16"/>
	</g>
</g>
<g>
	<g>
		<rect x="335.36" y="412.04" width="16" height="16"/>
	</g>
</g>
<g>
	<g>
		<rect x="351.36" y="428.04" width="16" height="16"/>
	</g>
</g>
<g>
	<g>
		<rect x="367.36" y="412.04" width="16" height="16"/>
	</g>
</g>
<g>
	<g>
		<rect x="383.36" y="428.04" width="16" height="16"/>
	</g>
</g>
<g>
	<g>
		<rect x="399.36" y="412.04" width="16" height="16"/>
	</g>
</g>
<g>
	<g>
		<rect x="415.36" y="428.04" width="16" height="16"/>
	</g>
</g>
<g>
	<g>
		<rect x="431.36" y="412.04" width="16" height="16"/>
	</g>
</g>
<g>
	<g>
		<rect x="447.36" y="428.04" width="16" height="16"/>
	</g>
</g>
<g>
	<g>
		<rect x="463.36" y="412.04" width="16" height="16"/>
	</g>
</g>
<g>
</g>
<g>
</g>
<g>
</g>
<g>
</g>
<g>
</g>
<g>
</g>
<g>
</g>
<g>
</g>
<g>
</g>
<g>
</g>
<g>
</g>
<g>
</g>
<g>
</g>
<g>
</g>
<g>
</g>
</svg>
