<?xml version="1.0" encoding="utf-8"?>
<!-- Generator: Adobe Illustrator 21.0.0, SVG Export Plug-In . SVG Version: 6.00 Build 0)  -->
<svg version="1.1" id="Calque_1" xmlns="http://www.w3.org/2000/svg" xmlns:xlink="http://www.w3.org/1999/xlink" x="0px" y="0px"
	 viewBox="0 0 841.9 595.3" style="enable-background:new 0 0 841.9 595.3;" xml:space="preserve">
<style type="text/css">
	.st0{fill:#59585A;}
	.st1{fill:#F0861B;}
	.st2{font-family:'FiraSans-Regular';}
	.st3{font-size:38.4662px;}
</style>
<path class="st0" d="M281.3,415.1c-10.3-10.6-13.6-20.9-13.6-34.2c0-28,23.1-53.5,62.1-53.5c15,0,26.9,2.4,39.2,11.5
	c11.2,8.2,17.1,21.9,17.1,35.1c0,34.7-26.3,57-61.1,57C310.8,431,294.5,428.5,281.3,415.1z M368.9,384.3c0-30-20.8-51.5-44.3-51.5
	c-19.4,0-40.6,13-40.6,42.2c0,25.3,20.4,50.2,48,50.2C352.2,425.2,368.9,406.9,368.9,384.3z"/>
<path class="st0" d="M411.1,366c0-12.7-0.3-28-0.7-32c-3-0.7-7.4-1.4-11.2-2l-0.4-3c4,0.3,13,0.6,23.9,0.6c6.5,0,17.4-0.3,20.9-0.6
	l-0.7,3c-3.8,0.4-10.2,1.1-14.7,2c-0.4,2.4-0.7,20.4-0.7,32.5v18.8c0,30,12.7,40.2,28,40.2c9.3,0,15.6-2.3,20.4-6.8
	c7.6-7.2,9.5-19.7,9.5-36.7v-13c0-4.5-0.1-30.4-0.7-35.1c-3.3-0.6-11.7-1.7-15.4-2l-1-3c3.5,0.3,14.1,0.6,22.9,0.6
	c7.4,0,14.9-0.3,17.3-0.6l-0.8,3c-2.4,0.6-6.2,1.1-9.9,2c-0.4,2.1-0.7,19.8-0.7,23.6v6.8c0,5.5,0.3,12.3,0.3,17.4
	c0,16-3,29.6-13.9,39.2c-6.5,5.8-15.6,9.9-29.6,9.9c-29.3,0-42.7-18.1-42.7-42.9V366z"/>
<path class="st0" d="M615,426.3c2-0.1,12.7-1.4,15.6-1.7c-0.3-5.2-12.6-68.9-14.3-79.4h-0.6c-3.8,8.6-31.7,76.6-35.9,84.6
	c-4-8.8-30.6-79.4-32.3-84.8H547c-3.7,21.7-12,61-11.5,79.2c2.5,0.6,10.5,1.7,12.6,2l0.6,3c-2-0.3-18.4-0.6-21.1-0.6
	c-3.8,0-11,0.3-15.7,0.6l1-3c2.4-0.4,6.9-1,10-1.8c3.1-8.9,18.5-78.8,20.7-90.4c-3.8-0.6-12.5-1.7-14-2l-0.8-3
	c1.8,0.3,12.9,0.6,20.4,0.6c6.1,0,17.3-0.3,21.2-0.6l-0.6,3c-4,0.4-7.9,1.4-10.6,2c4.1,12.9,21.4,59.2,25.8,69.9
	c4.1-8.1,28.6-66.6,28.9-69.9c-2.7-1-7.1-1.6-9.6-2l-0.7-3c4.5,0.3,14.2,0.6,19.1,0.6c4.5,0,16.4-0.3,19.7-0.6l-0.4,3
	c-2,0.3-8.9,1.3-11.9,2c2.7,15.8,16.1,81.4,18.5,90.3c3.5,0.8,9.2,1.6,11.7,2l0.7,3c-4.8-0.3-13.3-0.6-20-0.6
	c-6.5,0-22.1,0.3-26.2,0.6L615,426.3z"/>
<path class="st0" d="M723.2,426.3c5-0.4,9.9-1,14.3-2c-2.5-7.4-12.6-37.4-14.9-41.5c-5,0-27.5,1-32.7,1.8c-0.8,2-8.5,28.7-9.9,39.6
	c3.5,1,8.2,1.6,12.2,2l0.6,3c-4.4-0.3-17.3-0.6-21.4-0.6c-3.7,0-13.2,0.3-16.4,0.6l0.4-3c4.1-0.4,8.3-1.1,12.2-2
	c5.1-8.9,33.3-85,35.2-90.4c-3.1-0.8-7.8-1.4-11.2-1.8l-0.1-3c4.2,0.3,16,0.6,18.4,0.6c5.9,0,20.1-0.3,24.2-0.6l-0.4,3
	c-3.7,0.4-7.5,1-10.8,1.8c1.7,6.2,9.5,28.4,14.9,43.3c4,10.9,12.7,34.7,19.2,47.1c4.1,0.8,8.2,1.4,12.5,2l0.4,3
	c-1.7-0.3-16-0.6-23.5-0.6c-4.1,0-20.1,0.3-23.9,0.6L723.2,426.3z M707.2,336.3h-0.3c-4.4,12.6-13.6,37.1-15,41.7l29.7,0.6
	C718.5,369.3,709.6,344.1,707.2,336.3z"/>
<g>
	<path class="st0" d="M452.7,501h-7.4c0-0.3,0.1-2.5,0.1-6.6c0-4,0.1-7.8,0.1-11.4c0-1.4,0-3.7,0-6.9c0-3.2,0-5.6-0.1-7.2
		c-0.1-3.7-0.8-6.3-2.2-7.8c-1.4-1.4-3.5-2.2-6.4-2.2c-1.7,0-3.8,0.4-6.1,1.3c-2.4,0.9-5,2.2-8,4c0,0.2,0,0.5,0,0.9
		c0,0.5,0,1.1,0,1.8c0,2.5,0,5.1,0,7.7c0,2.6,0,5.1,0,7.5c0,5.2,0,9.5,0.1,13c0.1,3.5,0.1,5.4,0.1,5.8h-7.4c0-0.3,0-2.2,0.1-5.7
		c0.1-3.4,0.1-7.5,0.1-12.2c0-1.6,0-3.9,0-7.1c0-3.2,0-5.5-0.1-7c0-1.4-0.2-2.7-0.4-3.9c-0.2-1.2-0.6-2.3-1.2-3.2
		c-0.7-1-1.5-1.7-2.5-2.2s-2.5-0.7-4.4-0.7c-1.7,0-3.8,0.5-6.1,1.5c-2.3,1-5,2.5-8.1,4.4c0,0.5,0,2.5,0,6c0,3.4,0,6.3,0,8.4
		c0,3.7,0,8.2,0.1,13.4c0.1,5.2,0.1,7.9,0.1,8.3h-7.4c0-0.3,0-2.1,0.1-5.5s0.1-9,0.1-16.8c0-2.6,0-6,0-10.3c0-4.3-0.1-9.3-0.2-14.8
		h7.3l0,5.4l0,0c2.1-1.5,4.7-3,7.9-4.4c3.2-1.5,6-2.2,8.4-2.2c3.1,0,5.6,0.6,7.7,1.9c2,1.3,3.5,2.9,4.4,4.9h0.1
		c3.6-2.2,6.9-3.9,9.9-5.1c3-1.2,5.6-1.7,7.7-1.7c4.3,0,7.7,1.3,10.1,3.8c2.4,2.5,3.6,5.9,3.6,10.2c0,3.3,0,6.1-0.1,8.4
		c0,2.3-0.1,4.7-0.1,7.2c0,5.2,0,9.7,0.1,13.3C452.7,498.8,452.7,500.7,452.7,501z"/>
	<path class="st0" d="M502.1,474.3c0,7.7,0,14.1,0,18.9c0,4.9,0,7.5,0,7.9c-0.3,0-1.8,0.1-4.4,0.4c-2.6,0.2-5.9,0.3-10,0.3
		c-2.6,0-5.1-0.2-7.7-0.7s-4.8-1.1-6.7-2c-2.5-1.2-4.5-2.7-6.1-4.7c-1.5-2-2.3-4.4-2.3-7.2c0-3,0.9-5.5,2.7-7.7
		c1.8-2.2,4.4-3.9,7.6-5.3c2-0.8,4.7-1.6,8.1-2.3c3.4-0.7,7.3-1.2,11.6-1.5c-0.2-2.4-0.8-4.4-1.8-6c-1-1.6-2.5-2.7-4.5-3.6
		c-1.4-0.6-2.9-1-4.6-1.2c-1.7-0.2-3.7-0.4-5.9-0.4c-1.4,0-2.6,0-3.6,0.1c-1,0.1-2.3,0.1-4,0.2l0.7-6.2c0.5,0,1.4-0.1,2.8-0.2
		c1.4-0.1,3.3-0.1,5.7-0.1c3.7,0,7,0.4,9.9,1.1c2.9,0.8,5.3,2,7.2,3.7c1.8,1.6,3.1,3.6,4,6C501.7,466.3,502.1,469.8,502.1,474.3z
		 M494.9,485.6c0-1.1,0-2.4,0-4c0-1.6,0-3.5,0-5.6c-1.4,0.1-3.8,0.3-7.2,0.8c-3.4,0.5-6.3,1.2-8.7,2.1c-1.7,0.7-3.3,1.6-4.7,3
		c-1.4,1.3-2,2.9-2,4.9c0,2.1,0.6,3.8,1.7,5.1c1.2,1.3,2.7,2.3,4.7,3c1.5,0.5,3.2,0.9,5.1,1.1c1.9,0.2,3.8,0.3,5.9,0.3
		c0.6,0,1.4,0,2.3,0c0.9,0,1.9-0.1,2.9-0.1c0-0.2,0-1.2,0-3.1C494.9,491.2,494.9,488.7,494.9,485.6z"/>
	<path class="st0" d="M527.2,444.5h-8.2v-8.1h8.2V444.5z M526.8,501h-7.4c0-0.5,0.1-3.6,0.1-9.2c0-5.7,0.1-10.3,0.1-14
		c0-3.2,0-6.8,0-10.6c0-3.9-0.1-8.4-0.2-13.6h7.4c-0.1,4.5-0.1,8.7-0.2,12.6s-0.1,7.4-0.1,10.5c0,7.3,0,13.1,0.1,17.5
		C526.7,498.6,526.8,500.9,526.8,501z"/>
	<path class="st0" d="M570.2,487.3c0,2.3-0.6,4.4-1.7,6.2c-1.1,1.8-2.6,3.3-4.4,4.4c-1.9,1.2-4.2,2.1-6.8,2.7
		c-2.6,0.6-5.5,0.9-8.7,0.9c-1.5,0-3.1-0.1-4.8-0.2c-1.6-0.1-2.6-0.2-2.8-0.3l-0.3-6.1c0.3,0,1.4,0.1,3.3,0.3
		c1.9,0.1,3.8,0.2,5.6,0.2c1.1,0,2.5-0.1,4.2-0.3c1.7-0.2,3.1-0.5,4.3-1c1.6-0.7,2.7-1.5,3.5-2.5c0.7-1,1.1-2.2,1.1-3.6
		c0-1.3-0.3-2.3-1-3.1c-0.7-0.8-1.6-1.6-2.7-2.3c-1.2-0.8-3-1.7-5.1-2.7c-2.2-1-4-1.9-5.5-2.7c-2.1-1.3-3.7-2.8-4.8-4.5
		c-1.1-1.7-1.7-3.8-1.7-6.1c0-2.3,0.6-4.4,1.9-6.2c1.3-1.8,3-3.3,5.1-4.4c1.8-1,3.9-1.7,6.1-2c2.2-0.3,4.4-0.5,6.5-0.5
		c1.9,0,3.5,0,4.7,0.1c1.2,0.1,1.9,0.1,2.1,0.1l0.5,6.2c-0.2,0-1.2-0.1-2.9-0.2s-3.6-0.2-5.6-0.2c-1.4,0-2.8,0.1-4.1,0.4
		c-1.3,0.3-2.4,0.6-3.3,1.1c-1.3,0.7-2.3,1.5-2.9,2.5c-0.6,1-0.9,1.9-0.9,2.8c0,1.2,0.4,2.3,1.2,3.2c0.8,0.9,1.8,1.7,2.9,2.3
		c1.3,0.7,3,1.6,5.3,2.7c2.2,1,3.8,1.9,4.8,2.5c2.2,1.4,3.9,2.9,5,4.6C569.6,483,570.2,485,570.2,487.3z"/>
	<path class="st0" d="M625,477.3c0,3.6-0.6,7.1-1.9,10.4c-1.3,3.3-3.2,6.1-5.6,8.5c-2.1,2-4.3,3.5-6.9,4.5s-5.4,1.5-8.5,1.5
		c-3,0-5.8-0.5-8.4-1.5c-2.6-1-5-2.5-7-4.5c-2.4-2.3-4.2-5.1-5.5-8.4c-1.3-3.3-1.9-6.9-1.9-10.6c0-3.6,0.6-6.9,1.7-9.9
		c1.1-3,2.8-5.7,5.2-8.1c2.1-2.2,4.5-3.9,7.3-5c2.8-1.2,5.7-1.8,8.8-1.8c3.2,0,6.2,0.5,8.8,1.6c2.6,1.1,5,2.7,7,4.8
		c2.4,2.5,4.1,5.2,5.3,8.3S625,473.6,625,477.3z M617.5,477.6c0-2.9-0.5-5.8-1.4-8.6c-1-2.8-2.4-5.1-4.4-7c-1.2-1.2-2.7-2.1-4.3-2.7
		c-1.7-0.6-3.4-1-5.2-1c-2.2,0-4,0.3-5.6,1c-1.6,0.7-3.1,1.8-4.5,3.2c-1.7,1.7-3,3.8-3.9,6.5c-1,2.6-1.4,5.3-1.4,8.2
		c0,3.2,0.5,6.1,1.5,8.8c1,2.7,2.5,5,4.7,6.9c1.2,1.1,2.6,1.9,4.2,2.5c1.6,0.6,3.3,0.9,5.1,0.9c2,0,3.8-0.3,5.5-1
		c1.7-0.7,3.2-1.7,4.5-3c1.8-1.8,3.1-4,4.1-6.6C617.1,483.1,617.5,480.4,617.5,477.6z"/>
	<path class="st0" d="M676.8,501h-7.4c0-0.9,0.1-3.8,0.1-8.7c0-4.9,0.1-7.9,0.1-9.1c0-1.6,0-4,0-7.2c0-3.2,0-5.5-0.1-7
		c-0.1-3.6-0.8-6.2-2.1-7.7c-1.3-1.6-3.5-2.3-6.7-2.3c-1.9,0-4.3,0.6-7.1,1.7c-2.8,1.1-5.7,2.6-8.5,4.3c0,0.3,0,2.2,0,5.6
		c0,3.4,0,6.4,0,9.2c0,3.6,0,8,0.1,13.1c0.1,5.1,0.1,7.8,0.1,8.1h-7.4c0-0.2,0-2.1,0.1-5.7c0.1-3.6,0.1-9,0.1-16.1
		c0-3.3,0-7.1,0-11.5c0-4.4-0.1-9.1-0.2-14.1h7.3l0,5.4l0,0.1c4.4-2.5,8-4.2,10.9-5.2c2.9-1,5.3-1.5,7.3-1.5c4,0,7.2,1.3,9.6,3.8
		c2.4,2.5,3.6,6,3.6,10.3c0,3.9,0,7.3-0.1,10.2c0,2.9-0.1,5.2-0.1,7c0,2.8,0,6.4,0.1,10.7S676.8,500.8,676.8,501z"/>
</g>
<g>
	<path class="st0" d="M699.4,501.2h-6.5v-7h6.5V501.2z"/>
	<path class="st0" d="M732.5,496.9l-0.4,4.4c-0.2,0-0.5,0-0.8,0s-0.7,0-1,0c-2.8,0-5.4-0.3-7.9-0.8c-2.4-0.5-4.6-1.3-6.6-2.4
		c-2.6-1.4-4.7-3.3-6.2-5.7c-1.5-2.4-2.2-5-2.2-7.9c0-2.6,0.7-5,2-7.2c1.3-2.2,3.1-4,5.3-5.4c2-1.3,4.3-2.2,7-2.9
		c2.7-0.7,5.6-1,8.5-1c0.2,0,0.5,0,0.7,0s0.5,0,0.6,0l0.3,4.4c-0.2,0-0.3,0-0.5,0c-0.2,0-0.4,0-0.5,0c-2.4,0-4.5,0.1-6.2,0.4
		s-3.4,0.8-5,1.5c-2.2,0.9-3.9,2.2-5.1,4.1c-1.3,1.9-1.9,3.9-1.9,6c0,2.5,0.6,4.7,1.8,6.4c1.2,1.7,2.8,3.1,4.7,4
		c1.5,0.7,3.2,1.3,5.2,1.6c1.9,0.3,3.9,0.5,6.1,0.5c0.3,0,0.7,0,1.2,0C732.1,496.9,732.4,496.9,732.5,496.9z"/>
	<path class="st0" d="M763.8,482.5c0,5.4,0,9.8,0,13.2c0,3.4,0,5.2,0,5.5c-0.2,0-1.2,0.1-3,0.2c-1.8,0.1-4.1,0.2-7,0.2
		c-1.8,0-3.6-0.2-5.4-0.5c-1.8-0.3-3.4-0.8-4.7-1.4c-1.7-0.8-3.2-1.9-4.2-3.3c-1.1-1.4-1.6-3.1-1.6-5c0-2.1,0.6-3.9,1.9-5.4
		c1.3-1.5,3-2.7,5.3-3.7c1.4-0.6,3.3-1.1,5.7-1.6c2.4-0.5,5.1-0.8,8.1-1.1c-0.1-1.7-0.6-3.1-1.3-4.2c-0.7-1.1-1.8-1.9-3.2-2.5
		c-1-0.4-2-0.7-3.2-0.8c-1.2-0.2-2.5-0.2-4.1-0.2c-1,0-1.8,0-2.5,0.1c-0.7,0-1.6,0.1-2.8,0.2l0.5-4.3c0.3,0,1-0.1,1.9-0.1
		c1-0.1,2.3-0.1,4-0.1c2.6,0,4.9,0.3,6.9,0.8c2,0.5,3.7,1.4,5,2.6c1.2,1.1,2.2,2.5,2.8,4.2S763.8,479.4,763.8,482.5z M758.8,490.4
		c0-0.7,0-1.7,0-2.8c0-1.1,0-2.4,0-3.9c-1,0-2.6,0.2-5,0.6c-2.4,0.3-4.4,0.8-6,1.5c-1.2,0.5-2.3,1.1-3.3,2.1c-0.9,0.9-1.4,2-1.4,3.4
		c0,1.5,0.4,2.7,1.2,3.6c0.8,0.9,1.9,1.6,3.3,2.1c1.1,0.4,2.2,0.6,3.5,0.8c1.3,0.2,2.7,0.2,4.1,0.2c0.4,0,1,0,1.6,0
		c0.6,0,1.3,0,2-0.1c0-0.2,0-0.9,0-2.2C758.8,494.3,758.8,492.6,758.8,490.4z"/>
</g>
<path class="st1" d="M392.1,154.1l11.1,8.8c1.9,1.5,3.7,3,5.6,4.4l5.7,4.1l5.7,4.1c1.9,1.4,3.8,2.8,5.8,4.1l11.8,7.8
	c15.9,10,32.2,19.5,49.1,27.8l6.3,3.2l6.4,2.9c4.3,1.9,8.5,4,12.8,5.8l13,5.5l3.3,1.4l3.3,1.3l6.6,2.5l6.6,2.5
	c2.2,0.8,4.4,1.6,6.6,2.4c4.4,1.5,8.8,3.2,13.3,4.7l13.4,4.3l3.4,1.1l3.4,1l6.7,2c36,10.5,72.8,18.1,109.9,23.4
	c18.5,2.6,37.1,4.6,55.8,6c4.7,0.4,9.3,0.6,14,0.9c4.7,0.2,9.3,0.5,14,0.6c9.3,0.3,18.7,0.5,28,0.3c-9.3,0.7-18.7,1-28,1.2
	c-4.7,0.1-9.4,0.1-14,0.1c-4.7-0.1-9.4,0-14-0.2c-18.7-0.4-37.5-1.4-56.2-3.1c-37.4-3.3-74.9-9-111.8-17.8l-6.9-1.6l-3.5-0.8
	l-3.4-0.9l-13.8-3.7c-4.6-1.3-9.1-2.7-13.7-4c-2.3-0.7-4.6-1.3-6.9-2.1l-6.8-2.2l-6.8-2.2l-3.4-1.1l-3.4-1.2l-13.5-4.9
	c-4.5-1.7-8.9-3.5-13.4-5.3l-6.7-2.7l-6.6-2.9c-17.8-7.5-35.1-16.5-52.1-26l-12.7-7.5c-2.1-1.2-4.1-2.6-6.2-3.9l-6.2-4l-6.2-4
	c-2.1-1.4-4-2.9-6.1-4.3l-12.1-8.6c-5.2-3.7-6.6-11.1-3.3-16.5c3.4-5.4,10.3-6.8,15.4-3.1c0.1,0.1,0.3,0.2,0.4,0.3L392.1,154.1z"/>
<path class="st1" d="M20.5,339.7c38.1-9.6,75.4-22.2,111-38.1l6.7-3l3.3-1.5l3.3-1.6l13.1-6.5l3.3-1.6c1.1-0.5,2.1-1.1,3.2-1.7
	l6.4-3.5l6.4-3.5l3.2-1.7c1.1-0.6,2.1-1.2,3.1-1.8l12.5-7.4l3.1-1.9l3-2l6.1-4c4.1-2.6,8.2-5.2,12.1-8.1l11.8-8.4
	c31-23,59.4-49.2,83.6-78.7c12.1-14.7,23.1-30.2,32.9-46.3c4.9-8.1,9.5-16.3,13.6-24.6c1.1-2.1,2-4.2,3-6.3c1-2.1,1.9-4.2,2.9-6.3
	c0.9-2.1,1.8-4.2,2.6-6.3c0.4-1.1,0.8-2.1,1.2-3.1c0.2-0.5,0.4-1,0.6-1.5c0.2-0.5,0.4-1.1,0.5-1.4c1.9-6.4,8.7-10,15.2-8.2
	c6.5,1.9,10.2,8.5,8.4,14.9c-0.1,0.2-0.2,0.5-0.2,0.7l-0.1,0.3c-0.3,0.8-0.5,1.4-0.8,2c-0.3,0.6-0.5,1.2-0.8,1.8
	c-0.5,1.2-1,2.4-1.6,3.6c-1.1,2.4-2.2,4.6-3.3,6.9c-1.2,2.2-2.3,4.5-3.5,6.7c-1.2,2.2-2.4,4.4-3.6,6.6c-4.9,8.8-10.3,17.2-15.9,25.5
	c-11.3,16.5-23.7,32.1-37.1,46.8c-26.8,29.4-57.6,54.9-90.5,76.8l-12.6,7.9c-4.1,2.7-8.5,5.1-12.7,7.6l-6.4,3.7l-3.2,1.9l-3.3,1.7
	L188,283c-1.1,0.6-2.2,1.2-3.3,1.7l-3.3,1.6l-6.7,3.2l-6.7,3.2c-1.1,0.5-2.2,1.1-3.4,1.6l-3.4,1.5l-13.6,5.9l-3.4,1.5l-3.5,1.3
	l-6.9,2.7C97.2,321.3,59.1,332,20.5,339.7z"/>
<path class="st0" d="M230.7,431.6"/>
<path class="st0" d="M365.9,456.4c-0.1-0.4-0.4-0.6-0.7-0.7l-0.3,0c-2.1-0.2-4.2,0-6.2-0.1c-2,0-4.1,0.1-6.1,0.2c-4,0.2-8,0.6-12,1
	c-7.9,0.8-15.7,2-23.3,3.2c-15.3,2.5-30.3,5.3-44.9,7.5c-3.6,0.6-7.3,1-10.9,1.4c-1.8,0.2-3.6,0.4-5.4,0.5l-5.3,0.3
	c-1.4,0.1-2.8,0.1-4.2,0.1c-11.8-0.6-19.6-3.9-24.7-8.4c-4-7.1-8.8-20.9-4.8-40.2c0.8-2.8,1.5-5.6,2.2-8.4c0.1-0.2,0.1-0.4,0.2-0.6
	l0,0c0.2-0.8,0.4-1.7,0.6-2.5c1.9-7.7,3.5-15.5,4.9-23.3c1.4-7.8,2.4-15.6,3-23.5c0.5-7.9,0.6-15.8-0.1-23.7c-0.4-4-1-7.9-1.9-11.8
	c-0.9-3.9-2.2-7.8-4-11.5c-1.8-3.7-4.1-7.3-7.2-10.5c-3.1-3.1-6.9-5.8-11.3-7.6c-4.4-1.8-9.2-2.6-14-2.8c-2.4-0.1-4.8,0-7.1,0.2
	c-1.2,0.1-2.3,0.2-3.5,0.4c-0.6,0.1-1.1,0.1-1.7,0.2c-0.3,0-0.5,0-0.8,0c0,0-0.1,0-0.1,0c-0.2-0.1-0.4-0.2-0.6-0.2
	c-0.5,0-0.9,0.3-0.9,0.7c0,0.2,0,0.3,0.1,0.5c0.1,0.2,0.2,0.3,0.3,0.4c0.1,0,0.1,0.1,0.2,0.1l0.1,0.1c0.1,0,0.2,0.1,0.2,0.1
	c0.3,0.1,0.5,0.1,0.7,0.2c0.4,0.1,0.7,0.2,1,0.2l1.8,0.3c1.2,0.2,2.4,0.4,3.5,0.6c2.3,0.4,4.4,0.9,6.4,1.5c4,1.2,7.4,2.8,10,4.8
	c1.3,1,2.4,2,3.4,3.2c1,1.1,1.8,2.3,2.6,3.6c0.7,1.3,1.4,2.6,2,4c0.6,1.4,1,2.9,1.4,4.4c0.4,1.5,0.8,3.1,1,4.7
	c0.3,1.6,0.6,3.2,0.7,4.9c0.3,3.4,0.6,6.8,0.6,10.3l0,5.3c0,1.8-0.1,3.6-0.2,5.4c-0.1,3.6-0.3,7.3-0.6,11c-0.9,11.1-2,22.4-3.2,33.9
	c-11.1,46.6-1.9,63,0.4,67.9c2.3,4.8,5.4,9,8.9,12.3c3.5,3.3,7.4,5.7,11.3,7.5c3.9,1.8,8,3,12,3.8c4,0.8,8.1,1.3,12.1,1.5
	c8,0.4,15.9-0.2,23.8-1.3c7.8-1.2,15.6-2.8,23.2-4.8c7.6-2,15.2-4.3,22.7-6.9c7.5-2.6,14.9-5.4,22.3-8.5c7.4-3.1,14.7-6.3,21.9-9.7
	C365.9,457.5,366.1,456.9,365.9,456.4z M176.6,296.1c0,0.1,0.1,0.1,0,0.2C176.6,296.2,176.6,296.2,176.6,296.1z"/>
<path class="st1" d="M380.4,289.7h-33.6c-5.4,0-9.8-4.4-9.8-9.8v-33.6c0-5.4,4.4-9.8,9.8-9.8h33.6c5.4,0,9.8,4.4,9.8,9.8v33.6
	C390.2,285.3,385.9,289.7,380.4,289.7z"/>
<text transform="matrix(1 0 0 1 81.6377 178.2075)" class="st2 st3"> </text>
</svg>
